# Blender v3.3.0 OBJ File: 'ship.blend'
# www.blender.org
mtllib cabin.mtl
o Cube.001_Cube.002
v -0.245453 -1.216348 0.372276
v -0.276025 -1.030469 0.454114
v -0.245453 -1.216348 -0.941809
v -0.276025 -1.030469 -1.023647
v 0.245453 -1.216348 0.372276
v 0.276025 -1.030469 0.454114
v 0.245453 -1.216348 -0.941809
v 0.276025 -1.030469 -1.023647
v 0.179910 -1.216348 -0.941809
v -0.179910 -1.216348 -0.941809
v -0.202318 -1.030469 -1.023647
v 0.202318 -1.030469 -1.023647
v -0.179910 -1.216348 0.372276
v 0.179910 -1.216348 0.372276
v 0.202318 -1.030469 0.454114
v -0.202318 -1.030469 0.454114
v 0.089210 -1.132791 -1.553600
v -0.089210 -1.132791 -1.553600
v -0.202318 -1.030469 -1.728309
v 0.202318 -1.030469 -1.728309
v -0.136474 -1.106205 1.001468
v 0.136474 -1.106205 1.001468
v 0.202318 -1.030469 1.009064
v -0.202318 -1.030469 1.009064
v -0.245453 -1.216348 -0.867444
v -0.245453 -1.216348 0.297910
v -0.276025 -1.030469 0.370486
v -0.276025 -1.030469 -0.940019
v 0.245453 -1.216348 0.297910
v 0.245453 -1.216348 -0.867444
v 0.276025 -1.030469 -0.940019
v 0.276025 -1.030469 0.370486
v 0.202318 -1.030469 -0.940019
v 0.202318 -1.030469 0.370486
v -0.202318 -1.030469 -0.940019
v -0.202318 -1.030469 0.370486
v -0.179910 -1.216348 -0.867444
v -0.179910 -1.216348 0.297910
v 0.179910 -1.216348 -0.867444
v 0.179910 -1.216348 0.297910
v -0.389217 -0.578658 -1.057792
v -0.389217 -0.578658 -1.162733
v 0.285284 -0.578658 -1.162733
v 0.389217 -0.578658 -1.162733
v 0.389217 -0.540374 0.502666
v 0.389217 -0.540374 0.607607
v -0.285284 -0.540374 0.607607
v -0.389217 -0.540374 0.607607
v -0.285284 -0.578658 -1.162733
v 0.285284 -0.540374 0.607607
v 0.285284 -0.540374 0.502666
v -0.285284 -0.540374 0.502666
v -0.389217 -0.540374 0.502666
v 0.389217 -0.578658 -1.057792
v 0.285284 -0.578658 -1.057792
v -0.285284 -0.578658 -1.057792
v -0.343010 -0.934009 0.370486
v -0.343010 -0.934009 -0.940019
v 0.343010 -0.934009 -0.940019
v 0.343010 -0.934009 0.370486
v 0.251416 -0.934009 -0.940019
v 0.251416 -0.934009 0.370486
v -0.251416 -0.934009 -0.940019
v -0.251416 -0.934009 0.370486
v -0.343010 -0.851406 0.370486
v -0.343010 -0.851406 -0.940019
v 0.343010 -0.851406 -0.940019
v 0.343010 -0.851406 0.370486
v 0.251416 -0.851406 -0.940019
v 0.251416 -0.851406 0.370486
v -0.251416 -0.851406 -0.940019
v -0.251416 -0.851406 0.370486
v -0.243972 -0.923133 -1.032256
v 0.243972 -0.923133 -1.032256
v 0.243972 -0.923133 -0.931410
v -0.243972 -0.923133 -0.931410
v -0.243972 -0.848915 -0.933583
v 0.243972 -0.848915 -0.933583
v 0.243972 -0.848915 -0.832738
v -0.243972 -0.848915 -0.832738
v 0.248340 -0.946793 0.449987
v -0.248340 -0.946793 0.449987
v 0.248340 -0.946793 0.347336
v -0.248340 -0.946793 0.347336
v 0.218873 -0.860465 0.357906
v -0.218873 -0.860465 0.357906
v 0.218873 -0.860465 0.267435
v -0.218873 -0.860465 0.267435
v -0.389217 -0.454822 -1.057792
v -0.389217 -0.454822 -1.162733
v 0.285284 -0.454822 -1.162733
v 0.389217 -0.454822 -1.162733
v 0.389217 -0.416538 0.502666
v 0.389217 -0.416538 0.607607
v -0.285284 -0.416538 0.607607
v -0.389217 -0.416538 0.607607
v -0.285284 -0.454822 -1.162733
v 0.285284 -0.416538 0.607607
v 0.285284 -0.416538 0.502666
v -0.285284 -0.416538 0.502666
v -0.389217 -0.416538 0.502666
v 0.389217 -0.454822 -1.057792
v 0.285284 -0.454822 -1.057792
v -0.285284 -0.454822 -1.057792
vt 0.375000 0.235852
vt 0.625000 0.235852
vt 0.625000 0.250000
vt 0.375000 0.250000
vt 0.375000 0.466621
vt 0.625000 0.466621
vt 0.625000 0.500000
vt 0.375000 0.500000
vt 0.375000 0.735852
vt 0.625000 0.735852
vt 0.625000 0.750000
vt 0.375000 0.750000
vt 0.375000 0.966621
vt 0.625000 0.966621
vt 0.625000 1.000000
vt 0.375000 1.000000
vt 0.341621 0.735852
vt 0.341621 0.750000
vt 0.625000 0.966621
vt 0.625000 1.000000
vt 0.625000 0.783379
vt 0.625000 0.750000
vt 0.625000 0.783379
vt 0.658379 0.750000
vt 0.658379 0.735852
vt 0.658379 0.735852
vt 0.658379 0.750000
vt 0.125000 0.735852
vt 0.158379 0.735852
vt 0.158379 0.750000
vt 0.125000 0.750000
vt 0.375000 0.783379
vt 0.341621 0.750000
vt 0.158379 0.750000
vt 0.625000 0.283379
vt 0.375000 0.283379
vt 0.375000 0.466621
vt 0.625000 0.466621
vt 0.375000 0.283379
vt 0.625000 0.283379
vt 0.841621 0.500000
vt 0.658379 0.500000
vt 0.658379 0.500000
vt 0.841621 0.500000
vt 0.341621 0.500000
vt 0.158379 0.500000
vt 0.158379 0.500000
vt 0.341621 0.500000
vt 0.375000 0.783379
vt 0.625000 0.783379
vt 0.625000 0.966621
vt 0.375000 0.966621
vt 0.841621 0.750000
vt 0.841621 0.750000
vt 0.658379 0.750000
vt 0.341621 0.514148
vt 0.158379 0.514148
vt 0.125000 0.500000
vt 0.125000 0.514148
vt 0.841621 0.514148
vt 0.658379 0.514148
vt 0.658379 0.514148
vt 0.841621 0.514148
vt 0.841621 0.735852
vt 0.875000 0.735852
vt 0.875000 0.735852
vt 0.841621 0.735852
vt 0.625000 0.514148
vt 0.658379 0.514148
vt 0.625000 0.514148
vt 0.841621 0.500000
vt 0.841621 0.514148
vt 0.875000 0.514148
vt 0.875000 0.514148
vt 0.841621 0.514148
vt 0.375000 0.514148
vt 0.375000 0.000000
vt 0.625000 0.000000
vt 0.625000 0.014148
vt 0.375000 0.014148
vt 0.658379 0.500000
vt 0.658379 0.514148
vt 0.658379 0.514148
vt 0.658379 0.500000
vt 0.625000 0.735852
vt 0.625000 0.735852
vt 0.625000 0.750000
vt 0.625000 0.514148
vt 0.625000 0.500000
vt 0.625000 0.500000
vt 0.625000 0.514148
vt 0.625000 0.466621
vt 0.625000 0.466621
vt 0.658379 0.750000
vt 0.658379 0.735852
vt 0.841621 0.750000
vt 0.625000 0.250000
vt 0.625000 0.283379
vt 0.875000 0.514148
vt 0.625000 0.000000
vt 0.625000 0.014148
vt 0.625000 0.235852
vt 0.625000 0.235852
vt 0.625000 0.014148
vt 0.625000 0.014148
vt 0.625000 0.235852
vt 0.658379 0.735852
vt 0.658379 0.735852
vt 0.658379 0.514148
vt 0.841621 0.735852
vt 0.625000 0.735852
vt 0.875000 0.735852
vt 0.625000 0.514148
vt 0.625000 0.735852
vt 0.841621 0.514148
vt 0.875000 0.514148
vt 0.875000 0.735852
vt 0.841621 0.735852
vt 0.658379 0.514148
vt 0.841621 0.514148
vt 0.841621 0.500000
vt 0.658379 0.500000
vt 0.658379 0.500000
vt 0.841621 0.500000
vt 0.841621 0.750000
vt 0.658379 0.750000
vt 0.841621 0.750000
vt 0.841621 0.735852
vt 0.658379 0.735852
vt 0.841621 0.735852
vt 0.841621 0.735852
vt 0.875000 0.735852
vt 0.875000 0.750000
vt 0.841621 0.750000
vt 0.658379 0.735852
vt 0.658379 0.750000
vt 0.841621 0.500000
vt 0.875000 0.500000
vt 0.875000 0.514148
vt 0.841621 0.514148
vt 0.625000 0.966621
vt 0.625000 1.000000
vt 0.625000 0.250000
vt 0.625000 0.283379
vt 0.625000 0.783379
vt 0.625000 0.235852
vt 0.625000 0.000000
vt 0.625000 0.014148
vn -0.9867 -0.1623 0.0000
vn 0.0000 -0.4030 -0.9152
vn 0.9867 -0.1623 0.0000
vn 0.0000 -0.4030 0.9152
vn 0.0000 -1.0000 0.0000
vn 0.0000 -0.2989 0.9543
vn 0.8762 -0.4819 0.0000
vn 0.0000 -0.9850 0.1724
vn 0.8676 -0.4888 -0.0908
vn 0.0000 -0.8629 -0.5054
vn 0.0000 1.0000 0.0000
vn -0.8676 -0.4888 -0.0908
vn 0.0000 -0.9908 -0.1353
vn 0.0000 -0.0998 0.9950
vn 0.9384 -0.3391 0.0660
vn -0.9384 -0.3391 0.0660
vn 0.0000 -0.0799 0.9968
vn 0.0000 0.2604 -0.9655
vn 0.0000 0.0000 -1.0000
vn 0.9836 0.1806 0.0000
vn -1.0000 0.0000 0.0000
vn 1.0000 0.0000 0.0000
vn 0.0000 -0.2942 -0.9557
vn -0.9860 0.1669 0.0000
vn 0.9700 -0.2430 0.0000
vn 0.9860 0.1669 0.0000
vn 0.0000 0.2522 0.9677
vn -0.9836 0.1806 0.0000
vn 0.9744 -0.2250 0.0000
vn -0.9744 -0.2250 0.0000
vn -0.9700 -0.2430 0.0000
vn 0.8912 0.4536 0.0000
vn -0.8912 0.4536 0.0000
vn 0.8214 -0.5704 0.0000
vn 0.0000 0.0000 1.0000
vn -0.8214 -0.5704 0.0000
vn 0.0000 -0.7992 0.6011
vn -0.9323 -0.3618 0.0000
vn 0.9323 -0.3618 0.0000
vn 0.0000 -0.0799 -0.9968
vn 0.0000 0.7992 -0.6011
vn 0.0000 0.7295 0.6840
vn -0.8762 -0.4819 0.0000
vn 0.0000 -0.2666 -0.9638
vn 0.0000 0.0493 0.9988
vn 0.0000 -0.6793 -0.7339
vn 0.9464 0.3230 0.0000
vn -0.9464 0.3230 0.0000
usemtl Material.011
s off
f 25/1/1 28/2/1 4/3/1 3/4/1
f 9/5/2 12/6/2 8/7/2 7/8/2
f 29/9/3 32/10/3 6/11/3 5/12/3
f 13/13/4 16/14/4 2/15/4 1/16/4
f 40/17/5 29/9/5 5/12/5 14/18/5
f 2/15/6 16/14/6 47/19/6 48/20/6
f 15/21/6 6/11/6 46/22/6 50/23/6
f 15/24/7 34/25/7 83/26/7 81/27/7
f 26/28/5 38/29/5 13/30/5 1/31/5
f 38/29/5 40/17/5 14/18/5 13/30/5
f 5/12/4 6/11/4 15/21/4 14/32/4
f 13/30/8 14/18/8 22/33/8 21/34/8
f 3/4/2 4/3/2 11/35/2 10/36/2
f 12/6/9 9/5/9 17/37/9 20/38/9
f 18/39/10 19/40/10 20/38/10 17/37/10
f 11/41/11 12/42/11 20/43/11 19/44/11
f 10/36/12 11/35/12 19/40/12 18/39/12
f 9/45/13 10/46/13 18/47/13 17/48/13
f 22/49/14 23/50/14 24/51/14 21/52/14
f 14/32/15 15/21/15 23/50/15 22/49/15
f 16/14/16 13/13/16 21/52/16 24/51/16
f 15/24/11 16/53/11 24/54/11 23/55/11
f 10/46/5 9/45/5 39/56/5 37/57/5
f 37/57/5 39/56/5 40/17/5 38/29/5
f 3/58/5 10/46/5 37/57/5 25/59/5
f 25/59/5 37/57/5 38/29/5 26/28/5
f 35/60/17 33/61/17 75/62/17 76/63/17
f 33/61/11 35/60/11 36/64/11 34/25/11
f 36/64/18 27/65/18 53/66/18 52/67/18
f 31/68/19 33/61/19 61/69/19 59/70/19
f 35/60/20 11/41/20 49/71/20 56/72/20
f 35/60/19 28/73/19 58/74/19 63/75/19
f 9/45/5 7/8/5 30/76/5 39/56/5
f 39/56/5 30/76/5 29/9/5 40/17/5
f 7/8/3 8/7/3 31/68/3 30/76/3
f 30/76/3 31/68/3 32/10/3 29/9/3
f 1/77/1 2/78/1 27/79/1 26/80/1
f 26/80/1 27/79/1 28/2/1 25/1/1
f 43/81/21 55/82/21 103/83/21 91/84/21
f 46/22/22 45/85/22 93/86/22 94/87/22
f 54/88/22 44/89/22 92/90/22 102/91/22
f 44/89/19 43/92/19 91/93/19 92/90/19
f 8/7/23 12/6/23 43/92/23 44/89/23
f 34/25/24 15/24/24 50/94/24 51/95/24
f 31/68/25 8/7/25 44/89/25 54/88/25
f 16/53/26 36/64/26 52/67/26 47/96/26
f 11/35/23 4/3/23 42/97/23 49/98/23
f 33/61/27 31/68/27 54/88/27 55/82/27
f 12/42/28 33/61/28 55/82/28 43/81/28
f 32/10/18 34/25/18 51/95/18 45/85/18
f 6/11/29 32/10/29 45/85/29 46/22/29
f 28/73/27 35/60/27 56/72/27 41/99/27
f 27/79/30 2/78/30 48/100/30 53/101/30
f 4/3/31 28/2/31 41/102/31 42/97/31
f 58/103/21 57/104/21 65/105/21 66/106/21
f 61/69/21 62/107/21 70/108/21 69/109/21
f 36/64/32 35/60/32 63/75/32 64/110/32
f 33/61/33 34/25/33 62/107/33 61/69/33
f 32/10/34 31/68/34 59/70/34 60/111/34
f 27/65/35 36/64/35 64/110/35 57/112/35
f 28/2/36 27/79/36 57/104/36 58/103/36
f 34/25/35 32/10/35 60/111/35 62/107/35
f 67/113/11 69/109/11 70/108/11 68/114/11
f 71/115/11 66/116/11 65/117/11 72/118/11
f 57/112/35 64/110/35 72/118/35 65/117/35
f 62/107/35 60/111/35 68/114/35 70/108/35
f 64/110/22 63/75/22 71/115/22 72/118/22
f 60/111/22 59/70/22 67/113/22 68/114/22
f 63/75/19 58/74/19 66/116/19 71/115/19
f 59/70/19 61/69/19 69/109/19 67/113/19
f 76/63/37 75/62/37 79/119/37 80/120/37
f 11/41/38 35/60/38 76/63/38 73/121/38
f 33/61/39 12/42/39 74/122/39 75/62/39
f 12/42/40 11/41/40 73/121/40 74/122/40
f 78/123/11 77/124/11 80/120/11 79/119/11
f 75/62/22 74/122/22 78/123/22 79/119/22
f 73/121/21 76/63/21 80/120/21 77/124/21
f 74/122/41 73/121/41 77/124/41 78/123/41
f 82/125/42 81/27/42 85/126/42 86/127/42
f 36/64/43 16/53/43 82/125/43 84/128/43
f 34/25/44 36/64/44 84/128/44 83/26/44
f 16/53/45 15/24/45 81/27/45 82/125/45
f 87/129/11 88/130/11 86/127/11 85/126/11
f 83/26/46 84/128/46 88/130/46 87/129/46
f 81/27/47 83/26/47 87/129/47 85/126/47
f 84/128/48 82/125/48 86/127/48 88/130/48
f 100/131/11 101/132/11 96/133/11 95/134/11
f 93/86/11 99/135/11 98/136/11 94/87/11
f 92/90/11 91/84/11 103/83/11 102/91/11
f 97/137/11 90/138/11 89/139/11 104/140/11
f 48/20/35 47/19/35 95/141/35 96/142/35
f 56/72/22 49/71/22 97/137/22 104/140/22
f 49/98/19 42/97/19 90/143/19 97/144/19
f 55/82/35 54/88/35 102/91/35 103/83/35
f 50/23/35 46/22/35 94/87/35 98/145/35
f 45/85/19 51/95/19 99/135/19 93/86/19
f 51/95/21 50/94/21 98/136/21 99/135/21
f 41/99/35 56/72/35 104/140/35 89/139/35
f 47/96/22 52/67/22 100/131/22 95/134/22
f 42/97/21 41/102/21 89/146/21 90/143/21
f 52/67/19 53/66/19 101/132/19 100/131/19
f 53/101/21 48/100/21 96/147/21 101/148/21
