# Blender v3.3.0 OBJ File: 'ship.blend'
# www.blender.org
mtllib flap.mtl
o Cube
v -0.035997 -0.873649 0.290498
v -0.027737 0.775916 0.290498
v -0.027770 -0.853960 -0.768115
v -0.049666 0.775916 -0.173115
v 0.035997 -0.873649 0.290498
v 0.027737 0.775916 0.290498
v 0.027770 -0.853960 -0.768115
v 0.049666 0.775916 -0.173115
v -0.035997 -0.038401 0.354306
v -0.064457 -0.038401 -0.173115
v 0.064457 -0.038401 -0.173115
v 0.035997 -0.038401 0.354306
v -0.049666 -0.440108 -0.419287
v 0.049666 -0.440108 -0.419287
v 0.035997 -0.453317 0.354306
v -0.035997 -0.453317 0.354306
v -0.049666 -0.546060 -0.750634
v 0.049666 -0.546060 -0.750634
v 0.027737 -0.562012 0.352027
v -0.027737 -0.562012 0.352027
v -0.027737 0.597498 0.354306
v -0.064457 0.597498 -0.173115
v 0.064457 0.597498 -0.173115
v 0.027737 0.597498 0.354306
v -0.064457 0.056984 -0.173115
v 0.064457 0.056984 -0.173115
v 0.035997 0.056984 0.354306
v -0.035997 0.056984 0.354306
v -0.035997 0.499464 0.354306
v -0.064457 0.499464 -0.173115
v 0.064457 0.499464 -0.173115
v 0.035997 0.499464 0.354306
vt 0.589171 0.000000
vt 0.625000 0.000000
vt 0.625000 0.250000
vt 0.589171 0.250000
vt 0.625000 0.500000
vt 0.589171 0.500000
vt 0.625000 0.750000
vt 0.589171 0.750000
vt 0.424704 0.500000
vt 0.461473 0.500000
vt 0.461473 0.750000
vt 0.424704 0.750000
vt 0.424704 0.250000
vt 0.461473 0.250000
vt 0.424704 0.000000
vt 0.461473 0.000000
vt 0.399852 0.250000
vt 0.399852 0.500000
vt 0.375000 0.500000
vt 0.399852 0.750000
vt 0.375000 0.750000
vt 0.375000 0.250000
vt 0.375000 0.000000
vt 0.399852 0.000000
vt 0.569484 0.250000
vt 0.569484 0.500000
vt 0.480628 0.250000
vt 0.480628 0.500000
vt 0.480628 0.000000
vt 0.569484 0.000000
vt 0.569484 0.750000
vt 0.480628 0.750000
vt 0.625000 1.000000
vt 0.589171 1.000000
vt 0.125000 0.500000
vt 0.125000 0.750000
vt 0.875000 0.500000
vt 0.875000 0.750000
vt 0.461473 1.000000
vt 0.424704 1.000000
vt 0.399852 1.000000
vt 0.375000 1.000000
vt 0.569484 1.000000
vt 0.480628 1.000000
vn -0.9969 0.0519 0.0590
vn 0.0000 0.0000 -1.0000
vn 0.9969 0.0519 0.0590
vn 0.9991 -0.0278 0.0321
vn 0.0000 0.5225 -0.8526
vn -0.9991 -0.0278 0.0321
vn 0.0000 0.9525 -0.3046
vn 0.9997 -0.0228 0.0060
vn 0.0000 0.0567 -0.9984
vn -0.9997 -0.0228 0.0060
vn -0.9985 0.0000 0.0539
vn 0.9985 0.0000 0.0539
vn 0.0000 0.3367 0.9416
vn 0.0000 -0.9998 -0.0186
vn 0.0000 1.0000 -0.0000
vn 0.0000 0.0000 1.0000
vn -0.9976 -0.0662 0.0179
vn 0.9976 -0.0662 0.0179
vn 0.0000 -0.0210 0.9998
vn 0.0000 -0.1937 0.9811
vn 0.9972 0.0420 0.0616
vn -0.9972 0.0420 0.0616
usemtl Material.009
s off
f 21/1/1 2/2/1 4/3/1 22/4/1
f 22/4/2 4/3/2 8/5/2 23/6/2
f 23/6/3 8/5/3 6/7/3 24/8/3
f 14/9/4 11/10/4 12/11/4 15/12/4
f 13/13/5 10/14/5 11/10/5 14/9/5
f 16/15/6 9/16/6 10/14/6 13/13/6
f 17/17/7 13/13/7 14/9/7 18/18/7
f 7/19/8 18/18/8 19/20/8 5/21/8
f 3/22/9 17/17/9 18/18/9 7/19/9
f 1/23/10 20/24/10 17/17/10 3/22/10
f 30/25/2 22/4/2 23/6/2 31/26/2
f 10/14/2 25/27/2 26/28/2 11/10/2
f 28/29/11 29/30/11 30/25/11 25/27/11
f 25/27/2 30/25/2 31/26/2 26/28/2
f 26/28/12 31/26/12 32/31/12 27/32/12
usemtl Material.010
f 24/8/13 6/7/13 2/33/13 21/34/13
f 3/35/14 7/19/14 5/21/14 1/36/14
f 8/5/15 4/37/15 2/38/15 6/7/15
f 15/12/16 12/11/16 9/39/16 16/40/16
f 20/24/17 16/15/17 13/13/17 17/17/17
f 18/18/18 14/9/18 15/12/18 19/20/18
f 19/20/19 15/12/19 16/40/19 20/41/19
f 5/21/20 19/20/20 20/41/20 1/42/20
f 32/31/16 24/8/16 21/34/16 29/43/16
f 31/26/21 23/6/21 24/8/21 32/31/21
f 29/30/22 21/1/22 22/4/22 30/25/22
f 9/16/11 28/29/11 25/27/11 10/14/11
f 11/10/12 26/28/12 27/32/12 12/11/12
f 12/11/16 27/32/16 28/44/16 9/39/16
f 27/32/16 32/31/16 29/43/16 28/44/16
