# Blender v3.3.1 OBJ File: ''
# www.blender.org
mtllib unit_selection.mtl
o Cylinder
v 0.000000 -0.050000 -0.500000
v 0.000000 0.050000 -0.500000
v 0.353553 -0.050000 -0.353553
v 0.353553 0.050000 -0.353553
v 0.500000 -0.050000 0.000000
v 0.500000 0.050000 0.000000
v 0.353553 -0.050000 0.353553
v 0.353553 0.050000 0.353553
v 0.000000 -0.050000 0.500000
v 0.000000 0.050000 0.500000
v -0.353553 -0.050000 0.353553
v -0.353553 0.050000 0.353553
v -0.500000 -0.050000 0.000000
v -0.500000 0.050000 0.000000
v -0.353553 -0.050000 -0.353553
v -0.353553 0.050000 -0.353553
v -0.008820 -0.048655 -0.398080
v -0.008820 0.034118 -0.398080
v 0.283824 -0.048655 -0.276863
v 0.283824 0.034118 -0.276863
v 0.405041 -0.048655 0.015782
v 0.405041 0.034118 0.015782
v 0.283824 -0.048655 0.308426
v 0.283824 0.034118 0.308426
v -0.008820 -0.048655 0.429643
v -0.008820 0.034118 0.429643
v -0.301464 -0.048655 0.308426
v -0.301464 0.034118 0.308426
v -0.422682 -0.048655 0.015782
v -0.422682 0.034118 0.015782
v -0.301464 -0.048655 -0.276863
v -0.301464 0.034118 -0.276863
vt 1.000000 0.500000
vt 0.875000 0.500000
vt 0.875000 1.000000
vt 1.000000 1.000000
vt 0.750000 0.500000
vt 0.750000 1.000000
vt 0.625000 0.500000
vt 0.625000 1.000000
vt 0.500000 0.500000
vt 0.500000 1.000000
vt 0.375000 0.500000
vt 0.375000 1.000000
vt 0.250000 0.500000
vt 0.250000 1.000000
vt 0.125000 0.500000
vt 0.125000 1.000000
vt 0.000000 0.500000
vt 0.000000 1.000000
vt 1.000000 0.500000
vt 1.000000 1.000000
vt 0.875000 1.000000
vt 0.875000 0.500000
vt 0.750000 1.000000
vt 0.750000 0.500000
vt 0.625000 1.000000
vt 0.625000 0.500000
vt 0.500000 1.000000
vt 0.500000 0.500000
vt 0.375000 1.000000
vt 0.375000 0.500000
vt 0.250000 1.000000
vt 0.250000 0.500000
vt 0.125000 1.000000
vt 0.125000 0.500000
vt 0.000000 1.000000
vt 0.000000 0.500000
vn -0.3827 0.0000 0.9239
vn -0.9239 0.0000 0.3827
vn -0.9239 0.0000 -0.3827
vn -0.3827 0.0000 -0.9239
vn 0.3827 0.0000 -0.9239
vn 0.9239 0.0000 -0.3827
vn 0.9239 0.0000 0.3827
vn 0.3827 0.0000 0.9239
vn -0.2180 -0.9718 0.0903
vn 0.0075 0.9998 0.0182
vn 0.0866 -0.9741 0.2090
vn 0.0133 0.9999 -0.0055
vn -0.0160 0.9998 -0.0066
vn 0.1543 -0.9860 -0.0639
vn -0.1855 -0.9796 -0.0769
vn -0.0084 0.9998 0.0202
vn -0.0955 -0.9684 0.2306
vn 0.0152 0.9999 0.0063
vn -0.0057 0.9999 -0.0137
vn 0.0053 0.9999 -0.0127
vn 0.1763 -0.9816 0.0730
vn -0.0659 -0.9850 -0.1592
vn 0.0615 -0.9870 -0.1485
vn -0.0190 0.9998 0.0079
usemtl None
s off
f 1/1/1 3/2/1 4/3/1 2/4/1
f 3/2/2 5/5/2 6/6/2 4/3/2
f 5/5/3 7/7/3 8/8/3 6/6/3
f 7/7/4 9/9/4 10/10/4 8/8/4
f 9/9/5 11/11/5 12/12/5 10/10/5
f 11/11/6 13/13/6 14/14/6 12/12/6
f 13/13/7 15/15/7 16/16/7 14/14/7
f 15/15/8 1/17/8 2/18/8 16/16/8
f 17/19/5 18/20/5 20/21/5 19/22/5
f 19/22/6 20/21/6 22/23/6 21/24/6
f 21/24/7 22/23/7 24/25/7 23/26/7
f 23/26/8 24/25/8 26/27/8 25/28/8
f 25/28/1 26/27/1 28/29/1 27/30/1
f 27/30/2 28/29/2 30/31/2 29/32/2
f 29/32/3 30/31/3 32/33/3 31/34/3
f 31/34/4 32/33/4 18/35/4 17/36/4
f 12/12/9 14/14/9 30/31/9 28/29/9
f 9/9/10 7/7/10 23/26/10 25/28/10
f 8/8/11 10/10/11 26/27/11 24/25/11
f 5/5/12 3/2/12 19/22/12 21/24/12
f 15/15/13 13/13/13 29/32/13 31/34/13
f 4/3/14 6/6/14 22/23/14 20/21/14
f 14/14/15 16/16/15 32/33/15 30/31/15
f 11/11/16 9/9/16 25/28/16 27/30/16
f 10/10/17 12/12/17 28/29/17 26/27/17
f 7/7/18 5/5/18 21/24/18 23/26/18
f 1/17/19 15/15/19 31/34/19 17/36/19
f 3/2/20 1/1/20 17/19/20 19/22/20
f 6/6/21 8/8/21 24/25/21 22/23/21
f 16/16/22 2/18/22 18/35/22 32/33/22
f 2/4/23 4/3/23 20/21/23 18/20/23
f 13/13/24 11/11/24 27/30/24 29/32/24
