# Blender v3.3.0 OBJ File: ''
# www.blender.org
mtllib wood.mtl
o Cylinder
v -0.000084 0.255805 -0.868740
v 0.000342 0.263999 0.865307
v 0.127341 0.221408 -0.868581
v 0.130244 0.226875 0.864637
v 0.214424 0.123710 -0.861022
v 0.213407 0.123387 0.848312
v 0.255780 0.000058 -0.868325
v 0.256012 -0.001025 0.858052
v 0.214769 -0.123593 -0.862179
v 0.230902 -0.133218 0.867421
v 0.125322 -0.218699 -0.865647
v 0.128721 -0.221310 0.858954
v -0.000165 -0.258482 -0.869022
v -0.000636 -0.246565 0.849225
v -0.125103 -0.216739 -0.863693
v -0.134286 -0.233358 0.868128
v -0.222950 -0.129472 -0.871684
v -0.213330 -0.123388 0.849113
v -0.244280 0.000308 -0.858051
v -0.264522 0.000988 0.865420
v -0.227778 0.132758 -0.874043
v -0.230492 0.132268 0.866065
v -0.128901 0.221874 -0.868002
v -0.125075 0.216242 0.851334
v -0.000007 0.260583 -0.645487
v -0.000014 0.272589 -0.387288
v -0.000012 0.272739 -0.129111
v -0.000024 0.261642 0.129093
v 0.000069 0.282910 0.387275
v 0.000001 0.277941 0.645487
v 0.131941 0.228520 0.645489
v 0.132126 0.228837 0.387268
v 0.130069 0.225297 0.129094
v 0.136304 0.236119 -0.129120
v 0.131219 0.227284 -0.387293
v 0.141635 0.245353 -0.645485
v 0.235469 0.135719 0.645430
v 0.239971 0.138594 0.387254
v 0.225124 0.130046 0.129125
v 0.233024 0.134697 -0.129043
v 0.245157 0.141535 -0.387294
v 0.231040 0.133250 -0.645528
v 0.286027 -0.000005 0.645481
v 0.262323 -0.000034 0.387331
v 0.279218 0.000096 0.129106
v 0.280502 0.000065 -0.129096
v 0.263084 0.000130 -0.387258
v 0.271309 -0.000031 -0.645461
v 0.236172 -0.136466 0.645451
v 0.245934 -0.142093 0.387274
v 0.226791 -0.130751 0.129129
v 0.222070 -0.128214 -0.129100
v 0.225602 -0.130253 -0.387305
v 0.229055 -0.132217 -0.645524
v 0.131968 -0.228525 0.645485
v 0.129173 -0.223689 0.387312
v 0.129827 -0.225039 0.129054
v 0.139281 -0.241421 -0.129079
v 0.131206 -0.227178 -0.387367
v 0.131573 -0.227842 -0.645510
v -0.000090 -0.275300 0.645513
v -0.000038 -0.257517 0.387286
v 0.000202 -0.287036 0.129361
v 0.000003 -0.282153 -0.129109
v 0.000006 -0.263598 -0.387433
v -0.000008 -0.257875 -0.645491
v -0.140087 -0.242682 0.645507
v -0.131419 -0.227392 0.387321
v -0.140389 -0.243131 0.129111
v -0.139882 -0.242333 -0.129090
v -0.131226 -0.227290 -0.387305
v -0.134753 -0.233506 -0.645458
v -0.224804 -0.129762 0.645557
v -0.225964 -0.130428 0.387271
v -0.222916 -0.128712 0.129086
v -0.227477 -0.131253 -0.129185
v -0.232695 -0.134333 -0.387177
v -0.244242 -0.141005 -0.645531
v -0.277678 0.000117 0.645593
v -0.254946 0.000125 0.387311
v -0.278622 0.000084 0.129079
v -0.262585 0.000018 -0.129058
v -0.260244 -0.000016 -0.387237
v -0.272822 -0.000006 -0.645470
v -0.235436 0.135963 0.645463
v -0.230626 0.133152 0.387291
v -0.228104 0.131704 0.129097
v -0.227842 0.131577 -0.129099
v -0.235088 0.135848 -0.387358
v -0.245179 0.141489 -0.645464
v -0.141640 0.245194 0.645480
v -0.131069 0.227091 0.387298
v -0.140808 0.243827 0.129101
v -0.136488 0.236399 -0.129103
v -0.133817 0.231806 -0.387280
v -0.138391 0.239620 -0.645497
v 0.141515 0.244655 0.910306
v -0.000227 0.285162 0.911028
v 0.231046 0.133241 0.893502
v 0.276707 -0.000095 0.903485
v 0.249391 -0.143887 0.913088
v 0.138257 -0.239701 0.904387
v -0.000005 -0.266697 0.894403
v -0.145205 -0.252345 0.913852
v -0.230807 -0.133250 0.894348
v -0.285674 0.000051 0.911130
v -0.248493 0.143484 0.911816
v -0.135118 0.233793 0.896680
v 0.001246 0.289627 -0.907714
v 0.146101 0.250525 -0.907482
v 0.230131 0.132814 -0.899866
v 0.291287 0.000034 -0.907091
v 0.230413 -0.132916 -0.900943
v 0.144002 -0.247524 -0.904238
v 0.000948 -0.292874 -0.907842
v -0.140505 -0.245615 -0.902274
v -0.251717 -0.146428 -0.910786
v -0.262243 -0.000044 -0.897024
v -0.257135 0.149462 -0.913362
v -0.144087 0.251345 -0.906972
v 0.001192 0.271685 -0.907636
v 0.136596 0.235134 -0.907463
v 0.215636 0.124412 -0.899903
v 0.273016 0.000010 -0.907184
v 0.215976 -0.124313 -0.901054
v 0.134466 -0.232360 -0.904353
v 0.001090 -0.274644 -0.907921
v -0.131628 -0.230302 -0.902296
v -0.235601 -0.137571 -0.910743
v -0.245666 0.000281 -0.896942
v -0.240726 0.140910 -0.913242
v -0.135607 0.235652 -0.906860
v 0.134654 0.234322 0.910290
v 0.000308 0.272716 0.910982
v 0.220534 0.127452 0.893513
v 0.264510 -0.000962 0.903518
v 0.238549 -0.137629 0.913142
v 0.132911 -0.228703 0.904442
v -0.000567 -0.254763 0.894447
v -0.138723 -0.241110 0.913873
v -0.220403 -0.127473 0.894338
v -0.273242 0.000904 0.911097
v -0.238043 0.136695 0.911761
v -0.129193 0.223403 0.896626
vt 1.000000 0.928571
vt 1.000000 1.000000
vt 0.916667 1.000000
vt 0.916667 0.928571
vt 0.833333 1.000000
vt 0.833333 0.928571
vt 0.750000 1.000000
vt 0.750000 0.928571
vt 0.666667 1.000000
vt 0.666667 0.928571
vt 0.583333 1.000000
vt 0.583333 0.928571
vt 0.500000 1.000000
vt 0.500000 0.928571
vt 0.416667 1.000000
vt 0.416667 0.928572
vt 0.333333 1.000000
vt 0.333333 0.928571
vt 0.250000 1.000000
vt 0.250000 0.928571
vt 0.166667 1.000000
vt 0.166667 0.928571
vt 0.083333 1.000000
vt 0.083333 0.928572
vt 0.000000 1.000000
vt 0.000000 0.928571
vt 0.083333 0.500000
vt 0.083333 0.571428
vt 0.000000 0.571429
vt 0.000000 0.500000
vt 0.083333 0.642857
vt 0.000000 0.642857
vt 0.083333 0.714286
vt 0.000000 0.714286
vt 0.083333 0.785714
vt 0.000000 0.785714
vt 0.083333 0.857143
vt 0.000000 0.857143
vt 0.166667 0.500000
vt 0.166667 0.571429
vt 0.166667 0.642857
vt 0.166667 0.714286
vt 0.166667 0.785714
vt 0.166667 0.857143
vt 0.250000 0.500000
vt 0.250000 0.571429
vt 0.250000 0.642857
vt 0.250000 0.714286
vt 0.250000 0.785714
vt 0.250000 0.857143
vt 0.333333 0.500000
vt 0.333333 0.571429
vt 0.333333 0.642857
vt 0.333333 0.714286
vt 0.333333 0.785714
vt 0.333333 0.857143
vt 0.416667 0.500000
vt 0.416667 0.571429
vt 0.416667 0.642857
vt 0.416667 0.714286
vt 0.416667 0.785714
vt 0.416667 0.857143
vt 0.500000 0.500000
vt 0.500000 0.571429
vt 0.500000 0.642857
vt 0.500000 0.714286
vt 0.500000 0.785714
vt 0.500000 0.857143
vt 0.583333 0.500000
vt 0.583333 0.571429
vt 0.583333 0.642857
vt 0.583333 0.714286
vt 0.583333 0.785714
vt 0.583333 0.857143
vt 0.666667 0.500000
vt 0.666667 0.571429
vt 0.666667 0.642857
vt 0.666667 0.714286
vt 0.666667 0.785714
vt 0.666667 0.857143
vt 0.750000 0.500000
vt 0.750000 0.571429
vt 0.750000 0.642857
vt 0.750000 0.714286
vt 0.750000 0.785714
vt 0.750000 0.857143
vt 0.833333 0.500000
vt 0.833333 0.571428
vt 0.833333 0.642857
vt 0.833333 0.714286
vt 0.833333 0.785714
vt 0.833333 0.857143
vt 0.916667 0.500000
vt 0.916667 0.571429
vt 0.916667 0.642857
vt 0.916667 0.714286
vt 0.916667 0.785714
vt 0.916667 0.857143
vt 1.000000 0.500000
vt 1.000000 0.571429
vt 1.000000 0.642857
vt 1.000000 0.714286
vt 1.000000 0.785714
vt 1.000000 0.857143
vt 0.250263 0.480060
vt 0.364681 0.449265
vt 0.370000 0.457846
vt 0.250000 0.490000
vt 0.447700 0.364236
vt 0.457846 0.370000
vt 0.479381 0.249588
vt 0.490000 0.250000
vt 0.449435 0.134876
vt 0.457846 0.130000
vt 0.365032 0.051551
vt 0.370000 0.042154
vt 0.249741 0.021874
vt 0.250000 0.010000
vt 0.134667 0.050131
vt 0.130000 0.042154
vt 0.052744 0.135954
vt 0.042154 0.130000
vt 0.019932 0.250394
vt 0.010000 0.250000
vt 0.050557 0.364790
vt 0.042154 0.370000
vt 0.135846 0.447704
vt 0.130000 0.457846
vt 0.862525 0.445229
vt 0.750044 0.475098
vt 0.750000 0.490000
vt 0.870000 0.457846
vt 0.944141 0.361973
vt 0.957846 0.370000
vt 0.975652 0.249970
vt 0.990000 0.250000
vt 0.944324 0.137976
vt 0.957846 0.130000
vt 0.862197 0.055086
vt 0.870000 0.042154
vt 0.750075 0.024255
vt 0.750000 0.010000
vt 0.637907 0.055741
vt 0.630000 0.042154
vt 0.554546 0.136863
vt 0.542154 0.130000
vt 0.526782 0.250075
vt 0.510000 0.250000
vt 0.554243 0.363483
vt 0.542154 0.370000
vt 0.637304 0.444676
vt 0.630000 0.457846
vt 0.861895 0.444171
vt 0.750049 0.473852
vt 0.943004 0.361306
vt 0.974441 0.249966
vt 0.943202 0.138642
vt 0.861541 0.056164
vt 0.750084 0.025456
vt 0.638562 0.056868
vt 0.555598 0.137442
vt 0.528164 0.250083
vt 0.555272 0.362933
vt 0.637908 0.443578
vt 0.250300 0.478882
vt 0.364047 0.448253
vt 0.446513 0.363564
vt 0.478130 0.249533
vt 0.448437 0.135454
vt 0.364452 0.052662
vt 0.249705 0.023258
vt 0.135229 0.051089
vt 0.053977 0.136643
vt 0.021110 0.250448
vt 0.051550 0.364167
vt 0.136527 0.446522
vn 0.3117 0.9490 -0.0473
vn 0.7254 0.6879 -0.0256
vn 0.9409 0.3375 0.0273
vn 0.9640 -0.2658 -0.0109
vn 0.6577 -0.7515 -0.0509
vn 0.2635 -0.9646 -0.0082
vn -0.1627 -0.9867 -0.0036
vn -0.8044 -0.5932 -0.0324
vn -0.9257 -0.3772 -0.0278
vn -0.9610 0.2734 -0.0419
vn -0.6938 0.7201 -0.0034
vn -0.2915 0.9565 0.0113
vn -0.2036 0.9760 0.0777
vn -0.2212 0.9752 -0.0060
vn -0.2744 0.9616 -0.0103
vn -0.1917 0.9814 0.0054
vn -0.2614 0.9652 -0.0035
vn -0.3087 0.9507 -0.0305
vn -0.6729 0.7380 0.0499
vn -0.6816 0.7307 0.0384
vn -0.7216 0.6923 0.0060
vn -0.7718 0.6356 -0.0161
vn -0.7405 0.6714 0.0302
vn -0.7235 0.6885 -0.0494
vn -0.9937 0.1121 0.0043
vn -0.9814 0.1868 0.0451
vn -0.9758 0.2186 0.0111
vn -0.9509 0.3081 -0.0301
vn -0.9615 0.2719 0.0386
vn -0.9693 0.2399 -0.0530
vn -0.9909 -0.1346 -0.0045
vn -0.9787 -0.1995 0.0483
vn -0.9733 -0.2296 0.0068
vn -0.9439 -0.3296 -0.0193
vn -0.9500 -0.3102 0.0369
vn -0.9532 -0.2996 -0.0394
vn -0.6561 -0.7535 0.0419
vn -0.6598 -0.7505 0.0380
vn -0.7334 -0.6795 -0.0206
vn -0.7983 -0.6022 0.0083
vn -0.7663 -0.6419 0.0262
vn -0.7601 -0.6492 -0.0294
vn -0.2483 -0.9645 0.0898
vn -0.2224 -0.9749 0.0025
vn -0.2698 -0.9606 -0.0670
vn -0.2860 -0.9582 -0.0107
vn -0.2617 -0.9611 0.0887
vn -0.2248 -0.9722 -0.0661
vn 0.2619 -0.9591 0.1074
vn 0.2452 -0.9694 -0.0093
vn 0.2737 -0.9596 -0.0652
vn 0.3568 -0.9338 0.0272
vn 0.3467 -0.9363 0.0566
vn 0.2945 -0.9547 -0.0434
vn 0.7515 -0.6581 0.0462
vn 0.7083 -0.7058 0.0088
vn 0.7643 -0.6445 -0.0219
vn 0.7556 -0.6546 0.0245
vn 0.6350 -0.7716 -0.0377
vn 0.6179 -0.7862 0.0095
vn 0.9316 -0.3615 0.0389
vn 0.9566 -0.2905 0.0228
vn 0.9373 -0.3476 -0.0239
vn 0.9194 -0.3933 -0.0080
vn 0.9696 -0.2445 -0.0097
vn 0.9726 -0.2313 -0.0237
vn 0.9342 0.3552 0.0343
vn 0.9782 0.2072 -0.0145
vn 0.9730 0.2306 -0.0069
vn 0.9334 0.3583 0.0198
vn 0.9618 0.2738 -0.0006
vn 0.9659 0.2567 -0.0345
vn 0.7980 0.6026 0.0110
vn 0.6973 0.7167 0.0086
vn 0.6642 0.7475 0.0062
vn 0.7154 0.6976 0.0405
vn 0.6742 0.7375 -0.0393
vn 0.6546 0.7559 0.0106
vn 0.1859 0.9804 0.0660
vn 0.2165 0.9761 0.0158
vn 0.2927 0.9560 -0.0195
vn 0.2639 0.9635 0.0441
vn 0.3257 0.9443 -0.0467
vn 0.3650 0.9310 0.0097
vn 0.0040 -0.0039 1.0000
vn 0.0810 -0.0877 0.9929
vn -0.0186 0.0698 0.9974
vn 0.0189 0.0648 0.9977
vn -0.0413 -0.0450 0.9981
vn -0.0690 -0.0221 0.9974
vn 0.1323 -0.0366 0.9905
vn -0.0975 0.0961 0.9906
vn 0.0347 -0.1130 0.9930
vn 0.0024 -0.0055 1.0000
vn 0.0799 0.0698 0.9944
vn -0.0960 -0.0315 0.9949
vn 0.0006 -0.0031 -1.0000
vn 0.0389 -0.0385 -0.9985
vn -0.0094 0.0520 -0.9986
vn -0.0056 -0.0451 -0.9990
vn 0.0222 0.0129 -0.9997
vn 0.0255 0.0014 -0.9997
vn -0.0384 0.0073 -0.9992
vn 0.0413 -0.0419 -0.9983
vn -0.0228 0.0949 -0.9952
vn -0.0216 -0.1110 -0.9936
vn 0.0349 0.0262 -0.9990
vn -0.0037 -0.0066 -1.0000
vn -0.2413 -0.8957 -0.3736
vn -0.7557 -0.6181 -0.2164
vn -0.9109 -0.3497 -0.2191
vn -0.9109 0.3493 -0.2196
vn -0.7434 0.6328 -0.2165
vn -0.2707 0.8859 -0.3767
vn 0.2818 0.8893 -0.3602
vn 0.6394 0.6851 -0.3490
vn 0.9728 0.1335 -0.1891
vn 0.9768 -0.0991 -0.1896
vn 0.6382 -0.6842 -0.3529
vn 0.2356 -0.9024 -0.3607
vn -0.2694 -0.9460 0.1803
vn -0.7536 -0.6333 0.1760
vn -0.9355 -0.3067 0.1752
vn -0.9640 0.1958 0.1800
vn -0.6508 0.7376 0.1799
vn -0.2013 0.9638 0.1751
vn 0.1215 0.9767 0.1771
vn 0.7846 0.5944 0.1766
vn 0.9182 0.3549 0.1758
vn 0.9518 -0.2476 0.1812
vn 0.6282 -0.7576 0.1771
vn 0.3330 -0.9262 0.1769
vn 0.0030 -0.0035 1.0000
vn 0.0051 -0.0044 -1.0000
usemtl Material.001
s off
f 30/1/1 98/2/1 97/3/1 31/4/1
f 31/4/2 97/3/2 99/5/2 37/6/2
f 37/6/3 99/5/3 100/7/3 43/8/3
f 43/8/4 100/7/4 101/9/4 49/10/4
f 49/10/5 101/9/5 102/11/5 55/12/5
f 55/12/6 102/11/6 103/13/6 61/14/6
f 61/14/7 103/13/7 104/15/7 67/16/7
f 67/16/8 104/15/8 105/17/8 73/18/8
f 73/18/9 105/17/9 106/19/9 79/20/9
f 79/20/10 106/19/10 107/21/10 85/22/10
f 85/22/11 107/21/11 108/23/11 91/24/11
f 91/24/12 108/23/12 98/25/12 30/26/12
f 120/27/13 96/28/13 25/29/13 109/30/13
f 96/28/14 95/31/14 26/32/14 25/29/14
f 95/31/15 94/33/15 27/34/15 26/32/15
f 94/33/16 93/35/16 28/36/16 27/34/16
f 93/35/17 92/37/17 29/38/17 28/36/17
f 92/37/18 91/24/18 30/26/18 29/38/18
f 119/39/19 90/40/19 96/28/19 120/27/19
f 90/40/20 89/41/20 95/31/20 96/28/20
f 89/41/21 88/42/21 94/33/21 95/31/21
f 88/42/22 87/43/22 93/35/22 94/33/22
f 87/43/23 86/44/23 92/37/23 93/35/23
f 86/44/24 85/22/24 91/24/24 92/37/24
f 118/45/25 84/46/25 90/40/25 119/39/25
f 84/46/26 83/47/26 89/41/26 90/40/26
f 83/47/27 82/48/27 88/42/27 89/41/27
f 82/48/28 81/49/28 87/43/28 88/42/28
f 81/49/29 80/50/29 86/44/29 87/43/29
f 80/50/30 79/20/30 85/22/30 86/44/30
f 117/51/31 78/52/31 84/46/31 118/45/31
f 78/52/32 77/53/32 83/47/32 84/46/32
f 77/53/33 76/54/33 82/48/33 83/47/33
f 76/54/34 75/55/34 81/49/34 82/48/34
f 75/55/35 74/56/35 80/50/35 81/49/35
f 74/56/36 73/18/36 79/20/36 80/50/36
f 116/57/37 72/58/37 78/52/37 117/51/37
f 72/58/38 71/59/38 77/53/38 78/52/38
f 71/59/39 70/60/39 76/54/39 77/53/39
f 70/60/40 69/61/40 75/55/40 76/54/40
f 69/61/41 68/62/41 74/56/41 75/55/41
f 68/62/42 67/16/42 73/18/42 74/56/42
f 115/63/43 66/64/43 72/58/43 116/57/43
f 66/64/44 65/65/44 71/59/44 72/58/44
f 65/65/45 64/66/45 70/60/45 71/59/45
f 64/66/46 63/67/46 69/61/46 70/60/46
f 63/67/47 62/68/47 68/62/47 69/61/47
f 62/68/48 61/14/48 67/16/48 68/62/48
f 114/69/49 60/70/49 66/64/49 115/63/49
f 60/70/50 59/71/50 65/65/50 66/64/50
f 59/71/51 58/72/51 64/66/51 65/65/51
f 58/72/52 57/73/52 63/67/52 64/66/52
f 57/73/53 56/74/53 62/68/53 63/67/53
f 56/74/54 55/12/54 61/14/54 62/68/54
f 113/75/55 54/76/55 60/70/55 114/69/55
f 54/76/56 53/77/56 59/71/56 60/70/56
f 53/77/57 52/78/57 58/72/57 59/71/57
f 52/78/58 51/79/58 57/73/58 58/72/58
f 51/79/59 50/80/59 56/74/59 57/73/59
f 50/80/60 49/10/60 55/12/60 56/74/60
f 112/81/61 48/82/61 54/76/61 113/75/61
f 48/82/62 47/83/62 53/77/62 54/76/62
f 47/83/63 46/84/63 52/78/63 53/77/63
f 46/84/64 45/85/64 51/79/64 52/78/64
f 45/85/65 44/86/65 50/80/65 51/79/65
f 44/86/66 43/8/66 49/10/66 50/80/66
f 111/87/67 42/88/67 48/82/67 112/81/67
f 42/88/68 41/89/68 47/83/68 48/82/68
f 41/89/69 40/90/69 46/84/69 47/83/69
f 40/90/70 39/91/70 45/85/70 46/84/70
f 39/91/71 38/92/71 44/86/71 45/85/71
f 38/92/72 37/6/72 43/8/72 44/86/72
f 110/93/73 36/94/73 42/88/73 111/87/73
f 36/94/74 35/95/74 41/89/74 42/88/74
f 35/95/75 34/96/75 40/90/75 41/89/75
f 34/96/76 33/97/76 39/91/76 40/90/76
f 33/97/77 32/98/77 38/92/77 39/91/77
f 32/98/78 31/4/78 37/6/78 38/92/78
f 109/99/79 25/100/79 36/94/79 110/93/79
f 25/100/80 26/101/80 35/95/80 36/94/80
f 26/101/81 27/102/81 34/96/81 35/95/81
f 27/102/82 28/103/82 33/97/82 34/96/82
f 28/103/83 29/104/83 32/98/83 33/97/83
f 29/104/84 30/1/84 31/4/84 32/98/84
f 134/105/85 133/106/85 97/107/85 98/108/85
f 133/106/86 135/109/86 99/110/86 97/107/86
f 135/109/87 136/111/87 100/112/87 99/110/87
f 136/111/88 137/113/88 101/114/88 100/112/88
f 137/113/89 138/115/89 102/116/89 101/114/89
f 138/115/90 139/117/90 103/118/90 102/116/90
f 139/117/91 140/119/91 104/120/91 103/118/91
f 140/119/92 141/121/92 105/122/92 104/120/92
f 141/121/93 142/123/93 106/124/93 105/122/93
f 142/123/94 143/125/94 107/126/94 106/124/94
f 143/125/95 144/127/95 108/128/95 107/126/95
f 144/127/96 134/105/96 98/108/96 108/128/96
f 122/129/97 121/130/97 109/131/97 110/132/97
f 123/133/98 122/129/98 110/132/98 111/134/98
f 124/135/99 123/133/99 111/134/99 112/136/99
f 125/137/100 124/135/100 112/136/100 113/138/100
f 126/139/101 125/137/101 113/138/101 114/140/101
f 127/141/102 126/139/102 114/140/102 115/142/102
f 128/143/103 127/141/103 115/142/103 116/144/103
f 129/145/104 128/143/104 116/144/104 117/146/104
f 130/147/105 129/145/105 117/146/105 118/148/105
f 131/149/106 130/147/106 118/148/106 119/150/106
f 132/151/107 131/149/107 119/150/107 120/152/107
f 121/130/108 132/151/108 120/152/108 109/131/108
f 3/153/109 1/154/109 121/130/109 122/129/109
f 5/155/110 3/153/110 122/129/110 123/133/110
f 7/156/111 5/155/111 123/133/111 124/135/111
f 9/157/112 7/156/112 124/135/112 125/137/112
f 11/158/113 9/157/113 125/137/113 126/139/113
f 13/159/114 11/158/114 126/139/114 127/141/114
f 15/160/115 13/159/115 127/141/115 128/143/115
f 17/161/116 15/160/116 128/143/116 129/145/116
f 19/162/117 17/161/117 129/145/117 130/147/117
f 21/163/118 19/162/118 130/147/118 131/149/118
f 23/164/119 21/163/119 131/149/119 132/151/119
f 1/154/120 23/164/120 132/151/120 121/130/120
f 2/165/121 4/166/121 133/106/121 134/105/121
f 4/166/122 6/167/122 135/109/122 133/106/122
f 6/167/123 8/168/123 136/111/123 135/109/123
f 8/168/124 10/169/124 137/113/124 136/111/124
f 10/169/125 12/170/125 138/115/125 137/113/125
f 12/170/126 14/171/126 139/117/126 138/115/126
f 14/171/127 16/172/127 140/119/127 139/117/127
f 16/172/128 18/173/128 141/121/128 140/119/128
f 18/173/129 20/174/129 142/123/129 141/121/129
f 20/174/130 22/175/130 143/125/130 142/123/130
f 22/175/131 24/176/131 144/127/131 143/125/131
f 24/176/132 2/165/132 134/105/132 144/127/132
usemtl Material.002
f 4/166/133 2/165/133 24/176/133 22/175/133 20/174/133 18/173/133 16/172/133 14/171/133 12/170/133 10/169/133 8/168/133 6/167/133
f 1/154/134 3/153/134 5/155/134 7/156/134 9/157/134 11/158/134 13/159/134 15/160/134 17/161/134 19/162/134 21/163/134 23/164/134
