# Blender v3.3.1 OBJ File: 'turret.blend'
# www.blender.org
mtllib gun.mtl
o Cylinder
v 0.000000 0.068750 0.198965
v 0.000000 0.051573 -0.177262
v -0.030945 0.060458 0.198965
v -0.022357 0.045583 -0.177262
v -0.053599 0.037804 0.198965
v -0.038724 0.029216 -0.177262
v -0.061891 0.006859 0.198965
v -0.044715 0.006859 -0.177262
v -0.053599 -0.024087 0.198965
v -0.038724 -0.015498 -0.177262
v -0.030945 -0.046740 0.198965
v -0.022357 -0.031865 -0.177262
v 0.000000 -0.055032 0.198965
v 0.000000 -0.037856 -0.177262
v 0.030946 -0.046740 0.198965
v 0.022357 -0.031865 -0.177262
v 0.053599 -0.024087 0.198965
v 0.038724 -0.015498 -0.177262
v 0.061891 0.006859 0.198965
v 0.044715 0.006859 -0.177262
v 0.053599 0.037804 0.198965
v 0.038724 0.029216 -0.177262
v 0.030946 0.060458 0.198965
v 0.022357 0.045583 -0.177262
v -0.030946 0.060458 -0.177262
v 0.000000 0.068750 -0.177262
v -0.053599 0.037804 -0.177262
v -0.061891 0.006859 -0.177262
v -0.053599 -0.024087 -0.177262
v -0.030946 -0.046740 -0.177262
v 0.000000 -0.055032 -0.177262
v 0.030946 -0.046740 -0.177262
v 0.053599 -0.024087 -0.177262
v 0.061891 0.006859 -0.177262
v 0.053599 0.037804 -0.177262
v 0.030946 0.060458 -0.177262
v -0.009833 0.023890 -0.357093
v -0.000000 0.026524 -0.357093
v -0.017031 0.016692 -0.357093
v -0.019665 0.006859 -0.357093
v -0.017031 -0.002974 -0.357093
v -0.009833 -0.010172 -0.357093
v -0.000000 -0.012807 -0.357093
v 0.009833 -0.010172 -0.357093
v 0.017031 -0.002974 -0.357093
v 0.019665 0.006859 -0.357093
v 0.017031 0.016692 -0.357093
v 0.009833 0.023890 -0.357093
v 0.000000 0.068750 0.017719
v 0.000000 0.068750 -0.018371
v -0.030946 0.060458 -0.018371
v -0.030946 0.060458 0.017719
v -0.053599 0.037804 -0.018371
v -0.053599 0.037804 0.017719
v -0.061891 0.006859 -0.018371
v -0.061891 0.006859 0.017719
v -0.053599 -0.024087 -0.018371
v -0.053599 -0.024087 0.017719
v -0.030946 -0.046740 -0.018371
v -0.030946 -0.046740 0.017719
v 0.000000 -0.055032 -0.018371
v 0.000000 -0.055032 0.017719
v 0.030946 -0.046740 -0.018371
v 0.030946 -0.046740 0.017719
v 0.053599 -0.024087 -0.018371
v 0.053599 -0.024087 0.017719
v 0.061891 0.006859 -0.018371
v 0.061891 0.006859 0.017719
v 0.053599 0.037804 -0.018371
v 0.053599 0.037804 0.017719
v 0.030946 0.060458 -0.018371
v 0.030946 0.060458 0.017719
v -0.105040 0.038063 -0.018881
v -0.105040 0.038063 0.018229
v -0.106037 -0.022582 -0.018881
v -0.106037 -0.022582 0.018229
v 0.106037 -0.022582 -0.018881
v 0.106037 -0.022582 0.018229
v 0.105040 0.038063 -0.018881
v 0.105040 0.038063 0.018229
v -0.022357 0.045583 -0.357093
v -0.000000 0.051573 -0.357093
v -0.038724 0.029216 -0.357093
v -0.044715 0.006859 -0.357093
v -0.038724 -0.015498 -0.357093
v -0.022357 -0.031865 -0.357093
v -0.000000 -0.037856 -0.357093
v 0.022357 -0.031865 -0.357093
v 0.038724 -0.015498 -0.357093
v 0.044715 0.006859 -0.357093
v 0.038724 0.029216 -0.357093
v 0.022357 0.045583 -0.357093
v -0.006190 0.017581 -0.589255
v -0.000000 0.019239 -0.589255
v -0.010721 0.013049 -0.589255
v -0.012380 0.006859 -0.589255
v -0.010721 0.000669 -0.589255
v -0.006190 -0.003862 -0.589255
v -0.000000 -0.005521 -0.589255
v 0.006190 -0.003862 -0.589255
v 0.010721 0.000669 -0.589255
v 0.012380 0.006859 -0.589255
v 0.010721 0.013049 -0.589255
v 0.006190 0.017581 -0.589255
v -0.019665 0.006859 -0.655320
v -0.017031 -0.002974 -0.655320
v 0.017031 0.016692 -0.655320
v 0.009833 0.023890 -0.655320
v -0.000000 0.026525 -0.655320
v -0.009833 0.023890 -0.655320
v 0.009833 -0.010172 -0.655320
v 0.017031 -0.002974 -0.655320
v -0.009833 -0.010172 -0.655320
v -0.017031 0.016692 -0.655320
v 0.019665 0.006859 -0.655320
v -0.000000 -0.012806 -0.655320
v -0.013896 0.030928 -0.688173
v -0.000000 0.034652 -0.688173
v -0.024069 0.020755 -0.688173
v -0.027792 0.006859 -0.688173
v -0.024069 -0.007037 -0.688173
v -0.013896 -0.017210 -0.688173
v -0.000000 -0.020933 -0.688173
v 0.013896 -0.017210 -0.688173
v 0.024069 -0.007037 -0.688173
v 0.027792 0.006859 -0.688173
v 0.024069 0.020755 -0.688173
v 0.013896 0.030928 -0.688173
v -0.010228 0.024575 -0.688173
v -0.000000 0.027315 -0.688173
v -0.017715 0.017087 -0.688173
v -0.020456 0.006859 -0.688173
v -0.017715 -0.003369 -0.688173
v -0.010228 -0.010856 -0.688173
v -0.000000 -0.013597 -0.688173
v 0.010228 -0.010856 -0.688173
v 0.017715 -0.003369 -0.688173
v 0.020456 0.006859 -0.688173
v 0.017715 0.017087 -0.688173
v 0.010228 0.024575 -0.688173
v -0.022357 -0.031865 -0.335513
v -0.000000 -0.037856 -0.335513
v -0.038724 0.029216 -0.335513
v -0.044715 0.006859 -0.335513
v 0.044715 0.006859 -0.335513
v 0.038724 0.029216 -0.335513
v 0.022357 -0.031865 -0.335513
v -0.038724 -0.015498 -0.335513
v 0.022357 0.045583 -0.335513
v -0.000000 0.051573 -0.335513
v -0.022357 0.045583 -0.335513
v 0.038724 -0.015498 -0.335513
v -0.017031 -0.002974 -0.634845
v 0.009833 0.023890 -0.634845
v -0.009833 0.023890 -0.634845
v 0.017031 -0.002974 -0.634845
v -0.009833 -0.010172 -0.634845
v -0.017031 0.016692 -0.634845
v 0.019665 0.006859 -0.634845
v -0.000000 -0.012806 -0.634845
v -0.019665 0.006859 -0.634845
v 0.017031 0.016692 -0.634845
v -0.000000 0.026525 -0.634845
v 0.009833 -0.010172 -0.634845
vt 0.316041 0.211871
vt 0.326258 0.250000
vt 0.326258 0.250000
vt 0.316041 0.211871
vt 0.266984 0.279418
vt 0.250000 0.283969
vt 0.233016 0.279418
vt 0.220582 0.266984
vt 0.216031 0.250000
vt 0.220582 0.233016
vt 0.233016 0.220582
vt 0.250000 0.216031
vt 0.266984 0.220582
vt 0.279418 0.233016
vt 0.283969 0.250000
vt 0.279418 0.266984
vt 0.211871 0.316042
vt 0.183958 0.288129
vt 0.183958 0.288129
vt 0.211871 0.316042
vt 0.288129 0.316042
vt 0.250000 0.326258
vt 0.250000 0.326258
vt 0.288129 0.316042
vt 0.183959 0.211871
vt 0.211871 0.183958
vt 0.211871 0.183958
vt 0.183959 0.211871
vt 0.288129 0.183958
vt 0.288129 0.183958
vt 0.316042 0.288129
vt 0.316042 0.288129
vt 0.173742 0.250000
vt 0.173742 0.250000
vt 0.250000 0.173742
vt 0.250000 0.173742
vt 0.250000 0.306128
vt 0.278064 0.298608
vt 0.298608 0.278064
vt 0.306128 0.250000
vt 0.298608 0.221936
vt 0.278064 0.201391
vt 0.250000 0.193872
vt 0.221936 0.201391
vt 0.201392 0.221936
vt 0.193872 0.250000
vt 0.201392 0.278064
vt 0.221936 0.298608
vt 0.076607 0.250000
vt 0.099837 0.163303
vt 0.099837 0.163303
vt 0.076607 0.250000
vt 0.400163 0.336697
vt 0.336697 0.400163
vt 0.336697 0.400163
vt 0.400163 0.336697
vt 0.250000 0.423393
vt 0.163303 0.400163
vt 0.163303 0.400163
vt 0.250000 0.423393
vt 0.336697 0.099837
vt 0.400163 0.163303
vt 0.400163 0.163303
vt 0.336697 0.099837
vt 0.163303 0.099837
vt 0.163303 0.099837
vt 0.099837 0.336697
vt 0.099837 0.336697
vt 0.423393 0.250000
vt 0.423393 0.250000
vt 0.250000 0.076607
vt 0.250000 0.076607
vt 0.316041 0.211871
vt 0.326258 0.250000
vt 0.326258 0.250000
vt 0.316042 0.211871
vt 0.211871 0.316042
vt 0.183958 0.288129
vt 0.183958 0.288129
vt 0.211871 0.316042
vt 0.288129 0.316042
vt 0.250000 0.326258
vt 0.250000 0.326258
vt 0.288129 0.316042
vt 0.183959 0.211871
vt 0.211871 0.183958
vt 0.211871 0.183958
vt 0.183959 0.211871
vt 0.288129 0.183958
vt 0.288129 0.183958
vt 0.316042 0.288129
vt 0.316042 0.288129
vt 0.173742 0.250000
vt 0.173742 0.250000
vt 0.250000 0.173742
vt 0.250000 0.173742
vt 1.000000 0.788836
vt 1.000000 1.000000
vt 0.916667 1.000000
vt 0.916667 0.788836
vt 0.833333 1.000000
vt 0.833333 0.788836
vt 0.750000 1.000000
vt 0.750000 0.788836
vt 0.666667 1.000000
vt 0.666667 0.788836
vt 0.583333 1.000000
vt 0.583333 0.788836
vt 0.500000 1.000000
vt 0.500000 0.788836
vt 0.416667 1.000000
vt 0.416667 0.788836
vt 0.333333 1.000000
vt 0.333333 0.788836
vt 0.250000 1.000000
vt 0.250000 0.788836
vt 0.166667 1.000000
vt 0.166667 0.788836
vt 0.336697 0.099837
vt 0.250000 0.076607
vt 0.083333 1.000000
vt 0.083333 0.788836
vt 0.000000 1.000000
vt 0.000000 0.788836
vt 0.750000 0.490000
vt 0.870000 0.457846
vt 0.957846 0.370000
vt 0.990000 0.250000
vt 0.957846 0.130000
vt 0.870000 0.042154
vt 0.750000 0.010000
vt 0.630000 0.042154
vt 0.542154 0.130000
vt 0.510000 0.250000
vt 0.542154 0.370000
vt 0.630000 0.457846
vt 0.370000 0.457846
vt 0.250000 0.490000
vt 0.457846 0.370000
vt 0.490000 0.250000
vt 0.457846 0.130000
vt 0.370000 0.042154
vt 0.250000 0.010000
vt 0.130000 0.042154
vt 0.042154 0.130000
vt 0.010000 0.250000
vt 0.042154 0.370000
vt 0.130000 0.457846
vt 0.400163 0.336697
vt 0.423393 0.250000
vt 0.076607 0.250000
vt 0.099837 0.336697
vt 0.163303 0.099837
vt 0.400163 0.163303
vt 0.163303 0.400163
vt 0.250000 0.423393
vt 0.336697 0.400163
vt 0.099837 0.163303
vt 0.083333 0.500000
vt 0.083333 0.711164
vt 0.000000 0.711164
vt 0.000000 0.500000
vt 0.166667 0.500000
vt 0.166667 0.711164
vt 0.250000 0.500000
vt 0.250000 0.711164
vt 0.166667 0.711164
vt 0.166667 0.788836
vt 0.333333 0.500000
vt 0.333333 0.711164
vt 0.416667 0.500000
vt 0.416667 0.711164
vt 0.500000 0.500000
vt 0.500000 0.711164
vt 0.583333 0.500000
vt 0.583333 0.711164
vt 0.666667 0.500000
vt 0.666667 0.711164
vt 0.750000 0.500000
vt 0.750000 0.711164
vt 0.833333 0.500000
vt 0.833333 0.711164
vt 0.750000 0.788836
vt 0.833333 0.788836
vt 0.916667 0.500000
vt 0.916667 0.711164
vt 1.000000 0.500000
vt 1.000000 0.711164
vt 0.250000 0.711164
vt 0.250000 0.788836
vt 0.833333 0.711164
vt 0.750000 0.711164
vn -0.9395 -0.2517 0.2324
vn 0.0000 -0.0000 -1.0000
vn 0.6877 0.6877 0.2324
vn -0.2517 0.9395 0.2324
vn 0.6877 -0.6877 0.2324
vn -0.6877 -0.6877 0.2324
vn 0.2517 0.9395 0.2324
vn -0.6877 0.6877 0.2324
vn 0.9395 -0.2517 0.2324
vn -0.2517 -0.9395 0.2324
vn -0.9395 0.2517 0.2324
vn 0.9395 0.2517 0.2324
vn 0.2517 -0.9395 0.2324
vn 0.2580 -0.9629 -0.0786
vn 0.7049 -0.7049 -0.0786
vn 0.9629 -0.2580 -0.0786
vn 0.9629 0.2580 -0.0786
vn 0.7049 0.7049 -0.0786
vn 0.2580 0.9629 -0.0786
vn -0.2580 0.9629 -0.0786
vn -0.7049 0.7049 -0.0786
vn -0.9629 0.2580 -0.0786
vn -0.9629 -0.2580 -0.0786
vn -0.7049 -0.7049 -0.0786
vn -0.2580 -0.9629 -0.0786
vn 0.9659 -0.2588 -0.0000
vn -0.7071 0.7071 0.0000
vn 0.2588 0.9659 0.0000
vn -0.7071 -0.7071 -0.0000
vn 0.7071 -0.7071 -0.0000
vn -0.2588 0.9659 0.0000
vn 0.7071 0.7071 0.0000
vn -0.9659 -0.2588 0.0000
vn 0.2588 -0.9659 -0.0000
vn 0.9659 0.2588 -0.0000
vn -0.9659 0.2588 0.0000
vn -0.2588 -0.9659 -0.0000
vn 0.0000 0.0000 1.0000
vn -0.0050 1.0000 0.0000
vn 0.0110 -0.0011 -0.9999
vn 0.9999 0.0164 0.0000
vn -0.9999 0.0164 0.0000
vn -0.5548 -0.8320 0.0000
vn -0.0110 -0.0011 0.9999
vn 0.0110 -0.0011 0.9999
vn -0.0110 -0.0011 -0.9999
vn 0.5548 -0.8320 -0.0000
vn 0.0050 1.0000 0.0000
usemtl Material.004
s off
f 106/1/1 105/2/1 120/3/1 121/4/1
f 93/5/2 94/6/2 104/7/2 103/8/2 102/9/2 101/10/2 100/11/2 99/12/2 98/13/2 97/14/2 96/15/2 95/16/2
f 108/17/3 107/18/3 127/19/3 128/20/3
f 110/21/4 109/22/4 118/23/4 117/24/4
f 112/25/5 111/26/5 124/27/5 125/28/5
f 113/29/6 106/1/6 121/4/6 122/30/6
f 109/22/7 108/17/7 128/20/7 118/23/7
f 114/31/8 110/21/8 117/24/8 119/32/8
f 115/33/9 112/25/9 125/28/9 126/34/9
f 116/35/10 113/29/10 122/30/10 123/36/10
f 105/2/11 114/31/11 119/32/11 120/3/11
f 107/18/12 115/33/12 126/34/12 127/19/12
f 111/26/13 116/35/13 123/36/13 124/27/13
f 130/37/2 129/38/2 117/24/2 118/23/2
f 129/38/2 131/39/2 119/32/2 117/24/2
f 131/39/2 132/40/2 120/3/2 119/32/2
f 132/40/2 133/41/2 121/4/2 120/3/2
f 133/41/2 134/42/2 122/30/2 121/4/2
f 134/42/2 135/43/2 123/36/2 122/30/2
f 135/43/2 136/44/2 124/27/2 123/36/2
f 136/44/2 137/45/2 125/28/2 124/27/2
f 137/45/2 138/46/2 126/34/2 125/28/2
f 138/46/2 139/47/2 127/19/2 126/34/2
f 139/47/2 140/48/2 128/20/2 127/19/2
f 140/48/2 130/37/2 118/23/2 128/20/2
f 94/6/14 93/5/14 129/38/14 130/37/14
f 93/5/15 95/16/15 131/39/15 129/38/15
f 95/16/16 96/15/16 132/40/16 131/39/16
f 96/15/17 97/14/17 133/41/17 132/40/17
f 97/14/18 98/13/18 134/42/18 133/41/18
f 98/13/19 99/12/19 135/43/19 134/42/19
f 99/12/20 100/11/20 136/44/20 135/43/20
f 100/11/21 101/10/21 137/45/21 136/44/21
f 101/10/22 102/9/22 138/46/22 137/45/22
f 102/9/23 103/8/23 139/47/23 138/46/23
f 103/8/24 104/7/24 140/48/24 139/47/24
f 104/7/25 94/6/25 130/37/25 140/48/25
f 20/49/26 18/50/26 152/51/26 145/52/26
f 6/53/27 4/54/27 151/55/27 143/56/27
f 2/57/28 24/58/28 149/59/28 150/60/28
f 12/61/29 10/62/29 148/63/29 141/64/29
f 18/50/30 16/65/30 147/66/30 152/51/30
f 4/54/31 2/57/31 150/60/31 151/55/31
f 24/58/32 22/67/32 146/68/32 149/59/32
f 10/62/33 8/69/33 144/70/33 148/63/33
f 16/65/34 14/71/34 142/72/34 147/66/34
f 22/67/35 20/49/35 145/52/35 146/68/35
f 8/69/36 6/53/36 143/56/36 144/70/36
f 14/71/37 12/61/37 141/64/37 142/72/37
f 41/73/33 40/74/33 161/75/33 153/76/33
f 48/77/32 47/78/32 162/79/32 154/80/32
f 37/81/31 38/82/31 163/83/31 155/84/31
f 45/85/30 44/86/30 164/87/30 156/88/30
f 42/89/29 41/73/29 153/76/29 157/90/29
f 38/82/28 48/77/28 154/80/28 163/83/28
f 39/91/27 37/81/27 155/84/27 158/92/27
f 46/93/26 45/85/26 156/88/26 159/94/26
f 43/95/37 42/89/37 157/90/37 160/96/37
f 40/74/36 39/91/36 158/92/36 161/75/36
f 47/78/35 46/93/35 159/94/35 162/79/35
f 44/86/34 43/95/34 160/96/34 164/87/34
usemtl Material.005
f 50/97/31 26/98/31 25/99/31 51/100/31
f 51/100/27 25/99/27 27/101/27 53/102/27
f 53/102/36 27/101/36 28/103/36 55/104/36
f 55/104/33 28/103/33 29/105/33 57/106/33
f 57/106/29 29/105/29 30/107/29 59/108/29
f 59/108/37 30/107/37 31/109/37 61/110/37
f 61/110/34 31/109/34 32/111/34 63/112/34
f 63/112/30 32/111/30 33/113/30 65/114/30
f 65/114/26 33/113/26 34/115/26 67/116/26
f 67/116/35 34/115/35 35/117/35 69/118/35
f 142/72/37 141/64/37 86/119/37 87/120/37
f 69/118/32 35/117/32 36/121/32 71/122/32
f 71/122/28 36/121/28 26/123/28 50/124/28
f 1/125/38 3/126/38 5/127/38 7/128/38 9/129/38 11/130/38 13/131/38 15/132/38 17/133/38 19/134/38 21/135/38 23/136/38
f 2/57/2 4/54/2 25/137/2 26/138/2
f 4/54/2 6/53/2 27/139/2 25/137/2
f 6/53/2 8/69/2 28/140/2 27/139/2
f 8/69/2 10/62/2 29/141/2 28/140/2
f 10/62/2 12/61/2 30/142/2 29/141/2
f 12/61/2 14/71/2 31/143/2 30/142/2
f 14/71/2 16/65/2 32/144/2 31/143/2
f 16/65/2 18/50/2 33/145/2 32/144/2
f 18/50/2 20/49/2 34/146/2 33/145/2
f 20/49/2 22/67/2 35/147/2 34/146/2
f 22/67/2 24/58/2 36/148/2 35/147/2
f 24/58/2 2/57/2 26/138/2 36/148/2
f 144/70/36 143/56/36 83/149/36 84/150/36
f 146/68/35 145/52/35 90/151/35 91/152/35
f 147/66/34 142/72/34 87/120/34 88/153/34
f 148/63/33 144/70/33 84/150/33 85/154/33
f 149/59/32 146/68/32 91/152/32 92/155/32
f 151/55/31 150/60/31 82/156/31 81/157/31
f 152/51/30 147/66/30 88/153/30 89/158/30
f 141/64/29 148/63/29 85/154/29 86/119/29
f 150/60/28 149/59/28 92/155/28 82/156/28
f 143/56/27 151/55/27 81/157/27 83/149/27
f 145/52/26 152/51/26 89/158/26 90/151/26
f 23/159/28 72/160/28 49/161/28 1/162/28
f 72/160/28 71/122/28 50/124/28 49/161/28
f 21/163/32 70/164/32 72/160/32 23/159/32
f 70/164/32 69/118/32 71/122/32 72/160/32
f 19/165/35 68/166/35 70/164/35 21/163/35
f 69/118/39 70/164/39 80/167/39 79/168/39
f 17/169/26 66/170/26 68/166/26 19/165/26
f 66/170/26 65/114/26 67/116/26 68/166/26
f 15/171/30 64/172/30 66/170/30 17/169/30
f 64/172/30 63/112/30 65/114/30 66/170/30
f 13/173/34 62/174/34 64/172/34 15/171/34
f 62/174/34 61/110/34 63/112/34 64/172/34
f 11/175/37 60/176/37 62/174/37 13/173/37
f 60/176/37 59/108/37 61/110/37 62/174/37
f 9/177/29 58/178/29 60/176/29 11/175/29
f 58/178/29 57/106/29 59/108/29 60/176/29
f 7/179/33 56/180/33 58/178/33 9/177/33
f 56/180/33 55/104/33 57/106/33 58/178/33
f 5/181/36 54/182/36 56/180/36 7/179/36
f 53/102/40 55/104/40 75/183/40 73/184/40
f 3/185/27 52/186/27 54/182/27 5/181/27
f 52/186/27 51/100/27 53/102/27 54/182/27
f 1/187/31 49/188/31 52/186/31 3/185/31
f 49/188/31 50/97/31 51/100/31 52/186/31
f 78/189/41 77/190/41 79/168/41 80/167/41
f 74/191/42 73/184/42 75/183/42 76/192/42
f 68/166/43 67/116/43 77/190/43 78/189/43
f 70/164/44 68/166/44 78/189/44 80/167/44
f 56/180/45 54/182/45 74/191/45 76/192/45
f 67/116/46 69/118/46 79/168/46 77/190/46
f 55/104/47 56/180/47 76/192/47 75/183/47
f 54/182/48 53/102/48 73/184/48 74/191/48
f 38/82/2 37/81/2 81/157/2 82/156/2
f 37/81/2 39/91/2 83/149/2 81/157/2
f 39/91/2 40/74/2 84/150/2 83/149/2
f 40/74/2 41/73/2 85/154/2 84/150/2
f 41/73/2 42/89/2 86/119/2 85/154/2
f 42/89/2 43/95/2 87/120/2 86/119/2
f 43/95/2 44/86/2 88/153/2 87/120/2
f 44/86/2 45/85/2 89/158/2 88/153/2
f 45/85/2 46/93/2 90/151/2 89/158/2
f 46/93/2 47/78/2 91/152/2 90/151/2
f 47/78/2 48/77/2 92/155/2 91/152/2
f 48/77/2 38/82/2 82/156/2 92/155/2
f 164/87/34 160/96/34 116/35/34 111/26/34
f 162/79/35 159/94/35 115/33/35 107/18/35
f 161/75/36 158/92/36 114/31/36 105/2/36
f 160/96/37 157/90/37 113/29/37 116/35/37
f 159/94/26 156/88/26 112/25/26 115/33/26
f 158/92/27 155/84/27 110/21/27 114/31/27
f 163/83/28 154/80/28 108/17/28 109/22/28
f 157/90/29 153/76/29 106/1/29 113/29/29
f 156/88/30 164/87/30 111/26/30 112/25/30
f 155/84/31 163/83/31 109/22/31 110/21/31
f 154/80/32 162/79/32 107/18/32 108/17/32
f 153/76/33 161/75/33 105/2/33 106/1/33
