# Blender v3.3.0 OBJ File: ''
# www.blender.org
mtllib coal.mtl
o Sphere
v -0.005467 0.694134 -0.761035
v 0.001199 0.222200 -1.094876
v 0.002903 -0.234465 -1.000423
v -0.003143 -0.411043 -0.781004
v 0.132599 0.959570 -0.246639
v 0.271034 0.894776 -0.484349
v 0.407218 0.734576 -0.707989
v 0.502501 0.499709 -0.862444
v 0.571245 0.217829 -0.973745
v 0.475493 0.007862 -0.826632
v 0.499514 -0.213333 -0.864188
v 0.464661 -0.382046 -0.805232
v 0.346337 -0.512381 -0.598100
v 0.324806 -0.837817 -0.483070
v 0.095859 -0.658578 -0.197969
v 0.218546 0.847745 -0.127379
v 0.420238 0.772184 -0.258068
v 0.680807 0.706451 -0.390258
v 0.795084 0.462626 -0.460235
v 0.756943 0.201411 -0.479810
v 0.800747 0.000577 -0.455043
v 0.755309 -0.194387 -0.428924
v 0.673589 -0.391471 -0.387965
v 0.619396 -0.545527 -0.350300
v 0.448026 -0.738993 -0.263155
v 0.222990 -0.727579 -0.120911
v 0.237537 0.865364 0.011120
v 0.434543 0.684333 0.000466
v 0.764912 0.688439 -0.003860
v 0.936145 0.508136 -0.000617
v 0.950139 0.174913 0.000019
v 1.033581 -0.022117 -0.002615
v 0.834452 -0.172299 0.007853
v 0.794664 -0.407397 0.002500
v 0.583985 -0.447972 -0.003232
v 0.552231 -0.801609 -0.002241
v 0.251083 -0.682435 -0.033225
v 0.252304 0.912906 0.127528
v 0.499828 0.926484 0.269302
v 0.588170 0.611402 0.342882
v 0.758003 0.416441 0.435456
v 0.859919 0.209621 0.537187
v 0.794809 0.000378 0.457708
v 0.946153 -0.235525 0.543280
v 0.662334 -0.359704 0.378479
v 0.447612 -0.410000 0.260447
v 0.423712 -0.702737 0.243254
v 0.184026 -0.620424 0.098290
v 0.137050 0.931343 0.237822
v 0.286609 0.910693 0.491760
v 0.329939 0.591731 0.571983
v 0.481635 0.461771 0.827417
v 0.432626 0.177152 0.750871
v 0.458175 -0.007450 0.793881
v 0.413311 -0.154469 0.702286
v 0.409713 -0.393201 0.697394
v 0.334015 -0.568185 0.621876
v 0.243094 -0.689881 0.446357
v 0.130156 -0.742942 0.220311
v -0.019470 0.936630 0.265035
v 0.011462 0.858067 0.519439
v -0.001316 0.478444 0.537111
v -0.001381 0.473728 0.963756
v -0.003257 0.205833 1.046320
v -0.005929 0.015085 1.024811
v 0.007488 -0.186789 0.907103
v -0.003570 -0.328644 0.791153
v 0.003054 -0.591513 0.749109
v 0.004181 -0.747681 0.506825
v -0.016571 -0.655996 0.215213
v -0.099156 0.727117 0.191560
v -0.262911 0.839091 0.454497
v -0.376168 0.650076 0.638558
v -0.383693 0.373087 0.670368
v -0.528277 0.213633 0.919261
v -0.447507 0.000030 0.771176
v -0.487572 -0.212739 0.845991
v -0.372041 -0.382733 0.642115
v -0.408421 -0.664481 0.701181
v -0.259994 -0.740454 0.447530
v -0.127696 -0.928210 0.264016
v -0.191022 0.723636 0.098645
v -0.389468 0.681095 0.226214
v -0.669211 0.671657 0.376884
v -0.662191 0.372373 0.378987
v -0.784640 0.185217 0.489080
v -0.823580 0.002959 0.515554
v -0.726809 -0.161341 0.419053
v -0.855405 -0.409950 0.487626
v -0.532056 -0.464083 0.314368
v -0.415458 -0.686039 0.242427
v -0.283668 -1.019900 0.146741
v 0.016513 0.948106 -0.011754
v -0.246391 0.828940 -0.000325
v -0.459319 0.702913 0.002058
v -0.807385 0.738002 0.001689
v -0.852520 0.485177 0.002371
v -0.880862 0.183113 -0.002416
v -0.985364 -0.011422 -0.002975
v -0.837205 -0.172976 -0.001197
v -0.847974 -0.335569 0.002829
v -0.725560 -0.570894 -0.000478
v -0.451725 -0.637315 0.004549
v -0.269836 -0.884701 0.002125
v -0.221642 0.854893 -0.117018
v -0.379719 0.695864 -0.224788
v -0.714555 0.730827 -0.412632
v -0.624748 0.356211 -0.357212
v -0.694847 0.160259 -0.439505
v -0.726769 -0.005626 -0.473130
v -0.823173 -0.208671 -0.484275
v -0.850959 -0.407671 -0.486491
v -0.669150 -0.660988 -0.398684
v -0.379552 -0.575760 -0.206900
v -0.262211 -0.895898 -0.134137
v -0.117860 0.935498 -0.260133
v -0.299387 0.889188 -0.461825
v -0.364720 0.654219 -0.629633
v -0.437281 0.436627 -0.752512
v -0.477659 0.170160 -0.836512
v -0.561178 -0.008697 -0.968396
v -0.487281 -0.218781 -0.852081
v -0.417039 -0.423329 -0.703428
v -0.347117 -0.537932 -0.595793
v -0.202554 -0.582649 -0.373753
v -0.134741 -0.780740 -0.218885
v 0.001712 0.908218 -0.268973
v 0.003462 0.699504 -0.439384
v 0.010613 0.365278 -0.762922
v 0.006666 -0.024027 -1.126902
v -0.008859 -0.570380 -0.738064
v 0.014204 -0.834527 -0.566919
v 0.012359 -0.931782 -0.271410
v 0.012273 -0.738085 -0.005043
vt 0.750000 0.083333
vt 0.750000 0.166667
vt 0.666667 0.166667
vt 0.666667 0.083333
vt 0.750000 0.916667
vt 0.708333 1.000000
vt 0.666667 0.916667
vt 0.750000 0.333333
vt 0.750000 0.416667
vt 0.666667 0.416667
vt 0.666667 0.333333
vt 0.750000 0.583333
vt 0.750000 0.666667
vt 0.666667 0.666667
vt 0.666667 0.583333
vt 0.708333 0.000000
vt 0.750000 0.833333
vt 0.666667 0.833333
vt 0.750000 0.250000
vt 0.666667 0.250000
vt 0.750000 0.500000
vt 0.666667 0.500000
vt 0.750000 0.750000
vt 0.666667 0.750000
vt 0.583333 0.583333
vt 0.583333 0.500000
vt 0.583333 0.833333
vt 0.583333 0.750000
vt 0.583333 0.250000
vt 0.583333 0.166667
vt 0.583333 0.416667
vt 0.583333 0.666667
vt 0.583333 0.083333
vt 0.625000 1.000000
vt 0.583333 0.916667
vt 0.583333 0.333333
vt 0.625000 0.000000
vt 0.500000 0.416667
vt 0.500000 0.333333
vt 0.500000 0.666667
vt 0.500000 0.583333
vt 0.541667 0.000000
vt 0.500000 0.083333
vt 0.500000 0.916667
vt 0.500000 0.833333
vt 0.500000 0.250000
vt 0.500000 0.500000
vt 0.500000 0.750000
vt 0.500000 0.166667
vt 0.541667 1.000000
vt 0.416667 0.500000
vt 0.416667 0.416667
vt 0.416667 0.750000
vt 0.416667 0.666667
vt 0.416667 0.166667
vt 0.416667 0.083333
vt 0.458333 1.000000
vt 0.416667 0.916667
vt 0.416667 0.333333
vt 0.416667 0.583333
vt 0.458333 0.000000
vt 0.416667 0.833333
vt 0.416667 0.250000
vt 0.333333 0.333333
vt 0.333333 0.250000
vt 0.333333 0.583333
vt 0.333333 0.500000
vt 0.333333 0.833333
vt 0.333333 0.750000
vt 0.333333 0.166667
vt 0.333333 0.416667
vt 0.333333 0.666667
vt 0.333333 0.083333
vt 0.375000 1.000000
vt 0.333333 0.916667
vt 0.375000 0.000000
vt 0.291667 1.000000
vt 0.250000 0.916667
vt 0.250000 0.416667
vt 0.250000 0.333333
vt 0.250000 0.666667
vt 0.250000 0.583333
vt 0.291667 0.000000
vt 0.250000 0.083333
vt 0.250000 0.833333
vt 0.250000 0.250000
vt 0.250000 0.500000
vt 0.250000 0.750000
vt 0.250000 0.166667
vt 0.166667 0.250000
vt 0.166667 0.166667
vt 0.166667 0.500000
vt 0.166667 0.416667
vt 0.166667 0.750000
vt 0.166667 0.666667
vt 0.166667 0.083333
vt 0.208333 1.000000
vt 0.166667 0.916667
vt 0.166667 0.333333
vt 0.166667 0.583333
vt 0.208333 0.000000
vt 0.166667 0.833333
vt 0.083333 0.916667
vt 0.083333 0.833333
vt 0.083333 0.333333
vt 0.083333 0.250000
vt 0.083333 0.583333
vt 0.083333 0.500000
vt 0.083333 0.750000
vt 0.083333 0.166667
vt 0.083333 0.416667
vt 0.083333 0.666667
vt 0.083333 0.083333
vt 0.125000 1.000000
vt 0.125000 0.000000
vt 0.000000 0.166667
vt 0.000000 0.083333
vt 0.041667 1.000000
vt 0.000000 0.916667
vt 0.000000 0.416667
vt 0.000000 0.333333
vt 0.000000 0.666667
vt 0.000000 0.583333
vt 0.041667 0.000000
vt 0.000000 0.833333
vt 0.000000 0.250000
vt 0.000000 0.500000
vt 0.000000 0.750000
vt 1.000000 0.750000
vt 1.000000 0.833333
vt 0.916667 0.833333
vt 0.916667 0.750000
vt 1.000000 0.166667
vt 1.000000 0.250000
vt 0.916667 0.250000
vt 0.916667 0.166667
vt 1.000000 0.416667
vt 1.000000 0.500000
vt 0.916667 0.500000
vt 0.916667 0.416667
vt 1.000000 0.666667
vt 0.916667 0.666667
vt 1.000000 0.083333
vt 0.916667 0.083333
vt 1.000000 0.916667
vt 0.958333 1.000000
vt 0.916667 0.916667
vt 1.000000 0.333333
vt 0.916667 0.333333
vt 1.000000 0.583333
vt 0.916667 0.583333
vt 0.958333 0.000000
vt 0.875000 0.000000
vt 0.833333 0.083333
vt 0.833333 0.916667
vt 0.833333 0.833333
vt 0.833333 0.333333
vt 0.833333 0.250000
vt 0.833333 0.583333
vt 0.833333 0.500000
vt 0.833333 0.750000
vt 0.833333 0.166667
vt 0.833333 0.416667
vt 0.833333 0.666667
vt 0.875000 1.000000
vt 0.791667 1.000000
vt 0.791667 0.000000
vn 0.4550 -0.8387 0.2993
vn -0.3439 0.9307 -0.1245
vn 0.1218 -0.6317 -0.7656
vn -0.0734 0.7150 -0.6953
vn 0.9050 -0.3439 0.2504
vn -0.4458 0.6653 -0.5989
vn 0.1720 -0.6849 -0.7081
vn 0.3659 -0.2951 -0.8827
vn -0.3042 0.8895 -0.3411
vn 0.3205 -0.4130 -0.8525
vn 0.4138 -0.1650 -0.8953
vn -0.0975 0.2481 -0.9638
vn 0.8155 -0.3081 -0.4899
vn 0.4325 0.8974 -0.0875
vn 0.7052 -0.4693 -0.5316
vn 0.8114 -0.0257 -0.5839
vn 0.6882 0.5324 -0.4930
vn -0.1732 -0.9547 0.2419
vn 0.5605 0.7661 0.3144
vn 0.8141 -0.3795 -0.4395
vn 0.8748 0.1595 -0.4574
vn -0.2022 -0.8715 -0.4468
vn 0.5414 0.8196 0.1876
vn 0.5465 -0.7116 -0.4416
vn 0.9333 -0.2808 -0.2238
vn 0.9420 -0.0276 -0.3346
vn 0.2522 -0.8909 0.3778
vn 0.5629 0.8207 0.0980
vn 0.5936 -0.8045 0.0201
vn 0.8832 0.2608 -0.3898
vn 0.1347 0.9809 0.1404
vn 0.9296 -0.3588 -0.0846
vn 0.7716 -0.5755 -0.2711
vn 0.7905 0.5681 -0.2288
vn -0.2328 -0.9717 0.0396
vn 0.3608 0.9177 -0.1662
vn 0.9882 -0.0919 0.1224
vn 0.6146 0.6664 0.4222
vn -0.3943 -0.9012 0.1800
vn 0.3579 0.8477 -0.3916
vn 0.7418 -0.6706 0.0054
vn 0.9293 0.2508 0.2709
vn 0.2517 -0.8195 0.5148
vn 0.4310 0.6759 -0.5978
vn 0.1509 -0.9695 0.1932
vn 0.9491 -0.0207 0.3142
vn 0.6040 0.7904 -0.1026
vn 0.8740 -0.0872 0.4781
vn 0.5765 -0.8130 0.0813
vn 0.5836 -0.1328 0.8011
vn 0.6469 0.3040 0.6993
vn 0.8523 -0.3954 0.3424
vn 0.4989 0.1253 0.8575
vn 0.4487 0.8213 0.3523
vn 0.1491 -0.9645 -0.2178
vn 0.1516 0.9884 -0.0068
vn 0.3796 -0.6212 0.6856
vn 0.6496 0.1085 0.7525
vn 0.6652 -0.6530 -0.3620
vn 0.0130 0.9999 0.0049
vn 0.0419 0.9980 0.0468
vn 0.3165 -0.2981 0.9005
vn 0.4240 -0.0292 0.9052
vn -0.5006 -0.8306 0.2440
vn -0.0790 0.9728 0.2179
vn 0.2579 -0.2883 0.9222
vn 0.5066 0.0801 0.8584
vn -0.0491 0.1365 0.9894
vn 0.2789 -0.8262 0.4895
vn 0.3926 -0.4989 0.7726
vn -0.0945 0.9725 0.2130
vn -0.0828 -0.9952 -0.0529
vn 0.0198 -0.9032 0.4288
vn -0.3145 -0.0777 0.9461
vn -0.0526 0.8512 0.5222
vn 0.5471 -0.7862 0.2874
vn -0.9171 0.3850 -0.1033
vn -0.0976 -0.7283 0.6783
vn -0.3746 0.6450 0.6661
vn 0.9127 -0.3292 0.2422
vn -0.4830 0.8571 -0.1794
vn -0.2513 0.0440 0.9669
vn -0.3301 -0.4186 0.8461
vn 0.1252 0.3069 0.9435
vn -0.1865 0.9228 -0.3371
vn -0.5948 -0.6628 0.4549
vn -0.7014 -0.2760 0.6571
vn -0.3930 0.9159 0.0816
vn -0.7224 -0.6901 0.0435
vn -0.7403 -0.1490 0.6555
vn -0.6939 0.0429 0.7188
vn -0.5437 -0.5931 0.5938
vn -0.5132 0.7110 0.4808
vn -0.6154 -0.2250 0.7554
vn -0.5238 0.7734 0.3571
vn 0.6116 -0.7602 -0.2190
vn -0.8795 -0.4470 -0.1634
vn -0.2369 0.5963 0.7670
vn -0.9319 0.3387 0.1295
vn -0.8783 0.3425 0.3336
vn 0.3486 -0.7011 -0.6221
vn -0.2225 0.8748 0.4304
vn -0.4959 -0.8553 0.1501
vn -0.9053 0.3601 0.2254
vn 0.0695 0.9902 0.1215
vn -0.5317 -0.7904 0.3041
vn -0.7436 -0.6267 0.2330
vn -0.9087 0.0648 0.4125
vn 0.1007 0.9949 0.0050
vn 0.0158 -0.9986 0.0501
vn -0.9545 -0.1286 -0.2690
vn -0.9254 -0.0986 -0.3660
vn -0.8400 -0.4753 -0.2616
vn -0.4059 0.9066 0.1155
vn -0.9941 0.1059 -0.0230
vn -0.8388 0.2503 -0.4834
vn 0.4609 -0.8820 0.0983
vn -0.5801 0.8038 -0.1320
vn -0.8515 -0.5225 0.0442
vn -0.8364 0.3561 -0.4166
vn 0.5640 -0.7932 -0.2295
vn -0.6427 0.7345 0.2180
vn -0.3150 -0.6043 -0.7319
vn -0.8245 0.4443 -0.3503
vn -0.3655 0.9245 -0.1086
vn 0.1693 -0.9822 -0.0814
vn -0.8624 -0.0803 -0.4999
vn -0.7507 0.0531 -0.6585
vn -0.4459 -0.4887 -0.7499
vn -0.4286 0.8839 0.1870
vn -0.5777 -0.3315 -0.7459
vn -0.8511 0.3455 -0.3953
vn -0.1593 0.2354 -0.9588
vn -0.7896 -0.5597 -0.2514
vn 0.2081 0.9647 -0.1616
vn -0.1758 -0.6990 -0.6931
vn -0.1820 0.7115 -0.6787
vn -0.5273 -0.6873 0.4996
vn 0.3673 0.6749 -0.6400
vn -0.2538 -0.5109 -0.8213
vn -0.3522 0.3923 -0.8497
vn 0.1252 0.8829 -0.4525
vn -0.5819 -0.7414 -0.3343
vn -0.2526 -0.5150 -0.8191
usemtl Material.003
s off
f 133/1/1 132/2/1 14/3/1 15/4/1
f 127/5/2 93/6/2 5/7/2
f 4/8/3 3/9/3 11/10/3 12/11/3
f 2/12/4 129/13/4 8/14/4 9/15/4
f 134/16/5 133/1/5 15/4/5
f 128/17/6 127/5/6 5/7/6 6/18/6
f 131/19/7 4/8/7 12/11/7 13/20/7
f 130/21/8 2/12/8 9/15/8 10/22/8
f 1/23/9 128/17/9 6/18/9 7/24/9
f 132/2/10 131/19/10 13/20/10 14/3/10
f 3/9/11 130/21/11 10/22/11 11/10/11
f 129/13/12 1/23/12 7/24/12 8/14/12
f 10/22/13 9/15/13 20/25/13 21/26/13
f 7/24/14 6/18/14 17/27/14 18/28/14
f 14/3/15 13/20/15 24/29/15 25/30/15
f 11/10/16 10/22/16 21/26/16 22/31/16
f 8/14/17 7/24/17 18/28/17 19/32/17
f 15/4/18 14/3/18 25/30/18 26/33/18
f 5/7/19 93/34/19 16/35/19
f 12/11/20 11/10/20 22/31/20 23/36/20
f 9/15/21 8/14/21 19/32/21 20/25/21
f 134/37/22 15/4/22 26/33/22
f 6/18/23 5/7/23 16/35/23 17/27/23
f 13/20/24 12/11/24 23/36/24 24/29/24
f 23/36/25 22/31/25 33/38/25 34/39/25
f 20/25/26 19/32/26 30/40/26 31/41/26
f 134/42/27 26/33/27 37/43/27
f 17/27/28 16/35/28 27/44/28 28/45/28
f 24/29/29 23/36/29 34/39/29 35/46/29
f 21/26/30 20/25/30 31/41/30 32/47/30
f 18/28/31 17/27/31 28/45/31 29/48/31
f 25/30/32 24/29/32 35/46/32 36/49/32
f 22/31/33 21/26/33 32/47/33 33/38/33
f 19/32/34 18/28/34 29/48/34 30/40/34
f 26/33/35 25/30/35 36/49/35 37/43/35
f 16/35/36 93/50/36 27/44/36
f 33/38/37 32/47/37 43/51/37 44/52/37
f 30/40/38 29/48/38 40/53/38 41/54/38
f 37/43/39 36/49/39 47/55/39 48/56/39
f 27/44/40 93/57/40 38/58/40
f 34/39/41 33/38/41 44/52/41 45/59/41
f 31/41/42 30/40/42 41/54/42 42/60/42
f 134/61/43 37/43/43 48/56/43
f 28/45/44 27/44/44 38/58/44 39/62/44
f 35/46/45 34/39/45 45/59/45 46/63/45
f 32/47/46 31/41/46 42/60/46 43/51/46
f 29/48/47 28/45/47 39/62/47 40/53/47
f 36/49/48 35/46/48 46/63/48 47/55/48
f 46/63/49 45/59/49 56/64/49 57/65/49
f 43/51/50 42/60/50 53/66/50 54/67/50
f 40/53/51 39/62/51 50/68/51 51/69/51
f 47/55/52 46/63/52 57/65/52 58/70/52
f 44/52/53 43/51/53 54/67/53 55/71/53
f 41/54/54 40/53/54 51/69/54 52/72/54
f 48/56/55 47/55/55 58/70/55 59/73/55
f 38/58/56 93/74/56 49/75/56
f 45/59/57 44/52/57 55/71/57 56/64/57
f 42/60/58 41/54/58 52/72/58 53/66/58
f 134/76/59 48/56/59 59/73/59
f 39/62/60 38/58/60 49/75/60 50/68/60
f 49/75/61 93/77/61 60/78/61
f 56/64/62 55/71/62 66/79/62 67/80/62
f 53/66/63 52/72/63 63/81/63 64/82/63
f 134/83/64 59/73/64 70/84/64
f 50/68/65 49/75/65 60/78/65 61/85/65
f 57/65/66 56/64/66 67/80/66 68/86/66
f 54/67/67 53/66/67 64/82/67 65/87/67
f 51/69/68 50/68/68 61/85/68 62/88/68
f 58/70/69 57/65/69 68/86/69 69/89/69
f 55/71/70 54/67/70 65/87/70 66/79/70
f 52/72/71 51/69/71 62/88/71 63/81/71
f 59/73/72 58/70/72 69/89/72 70/84/72
f 69/89/73 68/86/73 79/90/73 80/91/73
f 66/79/74 65/87/74 76/92/74 77/93/74
f 63/81/75 62/88/75 73/94/75 74/95/75
f 70/84/76 69/89/76 80/91/76 81/96/76
f 60/78/77 93/97/77 71/98/77
f 67/80/78 66/79/78 77/93/78 78/99/78
f 64/82/79 63/81/79 74/95/79 75/100/79
f 134/101/80 70/84/80 81/96/80
f 61/85/81 60/78/81 71/98/81 72/102/81
f 68/86/82 67/80/82 78/99/82 79/90/82
f 65/87/83 64/82/83 75/100/83 76/92/83
f 62/88/84 61/85/84 72/102/84 73/94/84
f 72/102/85 71/98/85 82/103/85 83/104/85
f 79/90/86 78/99/86 89/105/86 90/106/86
f 76/92/87 75/100/87 86/107/87 87/108/87
f 73/94/88 72/102/88 83/104/88 84/109/88
f 80/91/89 79/90/89 90/106/89 91/110/89
f 77/93/90 76/92/90 87/108/90 88/111/90
f 74/95/91 73/94/91 84/109/91 85/112/91
f 81/96/92 80/91/92 91/110/92 92/113/92
f 71/98/93 93/114/93 82/103/93
f 78/99/94 77/93/94 88/111/94 89/105/94
f 75/100/95 74/95/95 85/112/95 86/107/95
f 134/115/96 81/96/96 92/113/96
f 92/113/97 91/110/97 103/116/97 104/117/97
f 82/103/98 93/118/98 94/119/98
f 89/105/99 88/111/99 100/120/99 101/121/99
f 86/107/100 85/112/100 97/122/100 98/123/100
f 134/124/101 92/113/101 104/117/101
f 83/104/102 82/103/102 94/119/102 95/125/102
f 90/106/103 89/105/103 101/121/103 102/126/103
f 87/108/104 86/107/104 98/123/104 99/127/104
f 84/109/105 83/104/105 95/125/105 96/128/105
f 91/110/106 90/106/106 102/126/106 103/116/106
f 88/111/107 87/108/107 99/127/107 100/120/107
f 85/112/108 84/109/108 96/128/108 97/122/108
f 96/129/109 95/130/109 106/131/109 107/132/109
f 103/133/110 102/134/110 113/135/110 114/136/110
f 100/137/111 99/138/111 110/139/111 111/140/111
f 97/141/112 96/129/112 107/132/112 108/142/112
f 104/143/113 103/133/113 114/136/113 115/144/113
f 94/145/114 93/146/114 105/147/114
f 101/148/115 100/137/115 111/140/115 112/149/115
f 98/150/116 97/141/116 108/142/116 109/151/116
f 134/152/117 104/143/117 115/144/117
f 95/130/118 94/145/118 105/147/118 106/131/118
f 102/134/119 101/148/119 112/149/119 113/135/119
f 99/138/120 98/150/120 109/151/120 110/139/120
f 134/153/121 115/144/121 126/154/121
f 106/131/122 105/147/122 116/155/122 117/156/122
f 113/135/123 112/149/123 123/157/123 124/158/123
f 110/139/124 109/151/124 120/159/124 121/160/124
f 107/132/125 106/131/125 117/156/125 118/161/125
f 114/136/126 113/135/126 124/158/126 125/162/126
f 111/140/127 110/139/127 121/160/127 122/163/127
f 108/142/128 107/132/128 118/161/128 119/164/128
f 115/144/129 114/136/129 125/162/129 126/154/129
f 105/147/130 93/165/130 116/155/130
f 112/149/131 111/140/131 122/163/131 123/157/131
f 109/151/132 108/142/132 119/164/132 120/159/132
f 119/164/133 118/161/133 1/23/133 129/13/133
f 126/154/134 125/162/134 132/2/134 133/1/134
f 116/155/135 93/166/135 127/5/135
f 123/157/136 122/163/136 3/9/136 4/8/136
f 120/159/137 119/164/137 129/13/137 2/12/137
f 134/167/138 126/154/138 133/1/138
f 117/156/139 116/155/139 127/5/139 128/17/139
f 124/158/140 123/157/140 4/8/140 131/19/140
f 121/160/141 120/159/141 2/12/141 130/21/141
f 118/161/142 117/156/142 128/17/142 1/23/142
f 125/162/143 124/158/143 131/19/143 132/2/143
f 122/163/144 121/160/144 130/21/144 3/9/144
