# Blender v3.3.0 OBJ File: ''
# www.blender.org
mtllib turret_body.mtl
o Cube_Cube.001
v 0.161085 0.113284 -0.163487
v 0.161085 0.267143 -0.102827
v 0.161085 0.308347 0.115986
v 0.161085 0.116431 0.127433
v -0.011157 0.116431 0.127433
v -0.011157 0.308347 0.115986
v -0.161085 0.308347 0.115986
v -0.161085 0.116431 0.127433
v -0.124277 0.247315 -0.105908
v -0.124277 0.199253 -0.109528
v -0.098177 -0.006007 0.154172
v -0.190696 -0.006007 0.154172
v -0.190696 -0.006007 -0.190226
v -0.098177 -0.006007 -0.190226
v 0.106986 0.308347 0.115986
v 0.106986 0.267143 -0.102827
v -0.047964 0.247315 -0.105908
v 0.190696 -0.006007 0.154172
v 0.098177 -0.006007 0.154172
v 0.098177 -0.006007 -0.190226
v 0.190696 -0.006007 -0.190226
v 0.106986 0.116431 0.127433
v 0.082932 0.054723 0.127433
v -0.082932 0.054723 0.127433
v 0.161085 0.054723 0.127433
v -0.082932 0.054723 -0.163487
v 0.082932 0.054723 -0.163487
v -0.161085 0.054723 -0.163487
v 0.161085 0.054723 -0.163487
v -0.161085 0.054723 0.127433
v 0.106986 0.113284 -0.163487
v -0.047964 0.199253 -0.109528
v -0.161085 0.267143 -0.102827
v -0.011157 0.267143 -0.102827
v -0.011157 0.113284 -0.163487
v -0.161085 0.113284 -0.163487
vt 0.581452 0.000000
vt 0.625000 0.000000
vt 0.625000 0.250000
vt 0.581452 0.250000
vt 0.581452 0.439354
vt 0.625000 0.439355
vt 0.625000 0.500000
vt 0.581452 0.500000
vt 0.625000 0.750000
vt 0.581452 0.750000
vt 0.314354 0.500000
vt 0.375000 0.500000
vt 0.375000 0.750000
vt 0.314354 0.750000
vt 0.814354 0.500000
vt 0.875000 0.500000
vt 0.875000 0.750000
vt 0.814354 0.750000
vt 0.685645 0.500000
vt 0.685645 0.750000
vt 0.125000 0.500000
vt 0.185645 0.500000
vt 0.185645 0.750000
vt 0.125000 0.750000
vt 0.625000 0.310645
vt 0.581452 0.310645
vt 0.375000 0.310645
vt 0.457792 0.310645
vt 0.457792 0.439354
vt 0.375000 0.439354
vt 0.375000 0.250000
vt 0.457792 0.250000
vt 0.375000 0.810646
vt 0.457792 0.810645
vt 0.457792 0.939355
vt 0.375000 0.939354
vt 0.457792 0.750000
vt 0.457792 1.000000
vt 0.375000 1.000000
vt 0.457792 0.500000
vt 0.375000 0.000000
vt 0.457792 0.000000
vt 0.581452 0.939355
vt 0.625000 0.939354
vt 0.581452 0.810645
vt 0.625000 0.810645
vt 0.590226 0.764888
vt 0.616226 0.764888
vt 0.616226 0.795756
vt 0.590226 0.795756
vt 0.625000 1.000000
vt 0.581452 1.000000
vn 1.0000 0.0000 0.0000
vn 0.0000 0.0199 0.9998
vn 0.0000 0.0595 0.9982
vn 0.0000 0.0298 0.9996
vn -1.0000 -0.0000 0.0000
vn 0.0000 -1.0000 -0.0000
vn 0.0000 0.9827 -0.1851
vn 0.0000 0.4030 0.9152
vn 0.0000 0.4030 -0.9152
vn -0.8988 0.4383 0.0000
vn 0.8988 0.4383 0.0000
vn 0.0000 0.9999 -0.0108
vn 0.0000 0.0751 -0.9972
vn 0.0000 0.3668 -0.9303
vn 0.0000 0.0000 1.0000
vn 0.0000 0.0000 -1.0000
vn -0.1612 0.2146 -0.9633
vn 0.1612 0.2146 -0.9633
vn 0.2509 0.2464 -0.9361
vn -0.2509 0.2464 -0.9361
vn -0.2106 0.3992 -0.8923
vn -0.0890 0.4798 -0.8728
vn 0.2106 0.3992 -0.8923
vn 0.0890 0.4798 -0.8728
usemtl Material.002
s 1
f 1/1/1 2/2/1 3/3/1 4/4/1
f 5/5/2 6/6/3 7/7/3 8/8/4
f 8/8/5 7/7/5 33/9/5 36/10/5
f 11/11/6 12/12/6 13/13/6 14/14/6
f 15/15/7 3/16/7 2/17/7 16/18/7
f 7/7/7 6/19/7 34/20/7 33/9/7
f 18/21/6 19/22/6 20/23/6 21/24/6
f 19/22/6 11/11/6 14/14/6 20/23/6
f 4/4/4 3/3/3 15/25/3 22/26/2
f 19/27/8 23/28/8 24/29/8 11/30/8
f 18/31/8 25/32/8 23/28/8 19/27/8
f 14/33/9 26/34/9 27/35/9 20/36/9
f 13/13/9 28/37/9 26/34/9 14/33/9
f 20/36/9 27/35/9 29/38/9 21/39/9
f 12/12/10 30/40/10 28/37/10 13/13/10
f 11/30/8 24/29/8 30/40/8 12/12/8
f 21/41/11 29/42/11 25/32/11 18/31/11
f 31/43/5 22/26/5 15/15/5 16/44/5
f 35/45/1 34/46/1 6/19/1 5/5/1
f 5/5/12 22/26/12 31/43/12 35/45/12
f 10/47/13 9/48/13 17/49/13 32/50/13
usemtl Material.003
f 31/43/14 16/44/14 2/51/14 1/52/14
f 23/28/15 22/26/2 5/5/2 24/29/15
f 25/32/15 4/4/4 22/26/2 23/28/15
f 26/34/16 35/45/16 31/43/16 27/35/16
f 28/37/16 36/10/16 35/45/16 26/34/16
f 27/35/16 31/43/16 1/52/16 29/38/16
f 30/40/5 8/8/5 36/10/5 28/37/5
f 24/29/15 5/5/2 8/8/4 30/40/15
f 29/42/1 1/1/1 4/4/1 25/32/1
f 17/49/17 9/48/18 33/9/19 34/46/20
f 32/50/21 17/49/17 34/46/20 35/45/22
f 10/47/23 32/50/21 35/45/22 36/10/24
f 9/48/18 10/47/23 36/10/24 33/9/19
