# Blender v3.3.0 OBJ File: ''
# www.blender.org
mtllib target.mtl
o Cube_Cube.001
v -0.251746 -0.605288 0.103667
v -0.181441 0.605288 0.103667
v -0.251746 -0.605288 -0.103667
v -0.181441 0.605288 -0.103667
v 0.251746 -0.605288 0.103667
v 0.181441 0.605288 0.103667
v 0.251746 -0.605288 -0.103667
v 0.181441 0.605288 -0.103667
v -0.251746 -0.512167 0.103667
v -0.251746 -0.419046 0.103667
v -0.251746 -0.325924 0.103667
v -0.251746 -0.232803 0.103667
v -0.251746 -0.139682 0.103667
v -0.251746 -0.046561 0.103667
v -0.251746 0.046561 0.103667
v -0.194450 0.150279 0.080073
v -0.194450 0.222206 0.080073
v -0.251746 0.325925 0.103667
v -0.251746 0.419046 0.103667
v -0.251746 0.512167 0.103667
v -0.251746 0.512167 -0.103667
v -0.251746 0.419046 -0.103667
v -0.251746 0.325924 -0.103667
v -0.194450 0.222206 -0.080073
v -0.194450 0.150279 -0.080073
v -0.251746 0.046561 -0.103667
v -0.251746 -0.046561 -0.103667
v -0.251746 -0.139682 -0.103667
v -0.251746 -0.232803 -0.103667
v -0.251746 -0.325925 -0.103667
v -0.251746 -0.419046 -0.103667
v -0.251746 -0.512167 -0.103667
v 0.251746 0.512167 -0.103667
v 0.251746 0.419046 -0.103667
v 0.251746 0.325924 -0.103667
v 0.194450 0.222206 -0.080073
v 0.194450 0.150279 -0.080073
v 0.251746 0.046561 -0.103667
v 0.251746 -0.046561 -0.103667
v 0.251746 -0.139682 -0.103667
v 0.251746 -0.232803 -0.103667
v 0.251746 -0.325925 -0.103667
v 0.251746 -0.419046 -0.103667
v 0.251746 -0.512167 -0.103667
v 0.251746 0.512167 0.103667
v 0.251746 0.419046 0.103667
v 0.251746 0.325924 0.103667
v 0.194450 0.222206 0.080073
v 0.194450 0.150279 0.080073
v 0.251746 0.046561 0.103667
v 0.251746 -0.046561 0.103667
v 0.251746 -0.139682 0.103667
v 0.251746 -0.232803 0.103667
v 0.251746 -0.325925 0.103667
v 0.251746 -0.419046 0.103667
v 0.251746 -0.512167 0.103667
vt 0.605769 0.000000
vt 0.625000 0.000000
vt 0.625000 0.250000
vt 0.605769 0.250000
vt 0.625000 0.500000
vt 0.605769 0.500000
vt 0.625000 0.750000
vt 0.605769 0.750000
vt 0.625000 1.000000
vt 0.605769 1.000000
vt 0.125000 0.500000
vt 0.375000 0.500000
vt 0.375000 0.750000
vt 0.125000 0.750000
vt 0.875000 0.500000
vt 0.875000 0.750000
vt 0.394231 0.750000
vt 0.394231 1.000000
vt 0.375000 1.000000
vt 0.413462 0.750000
vt 0.413462 1.000000
vt 0.432692 0.750000
vt 0.432692 1.000000
vt 0.451923 0.750000
vt 0.451923 1.000000
vt 0.471154 0.750000
vt 0.471154 1.000000
vt 0.490385 0.750000
vt 0.490385 1.000000
vt 0.509615 0.750000
vt 0.509615 1.000000
vt 0.528846 0.750000
vt 0.528846 1.000000
vt 0.548077 0.750000
vt 0.548077 1.000000
vt 0.567308 0.750000
vt 0.567308 1.000000
vt 0.586538 0.750000
vt 0.586538 1.000000
vt 0.394231 0.500000
vt 0.413462 0.500000
vt 0.432692 0.500000
vt 0.451923 0.500000
vt 0.471154 0.500000
vt 0.490385 0.500000
vt 0.509615 0.500000
vt 0.528846 0.500000
vt 0.548077 0.500000
vt 0.567308 0.500000
vt 0.586538 0.500000
vt 0.375000 0.250000
vt 0.394231 0.250000
vt 0.413462 0.250000
vt 0.432692 0.250000
vt 0.451923 0.250000
vt 0.471154 0.250000
vt 0.490385 0.250000
vt 0.509615 0.250000
vt 0.528846 0.250000
vt 0.548077 0.250000
vt 0.567308 0.250000
vt 0.586538 0.250000
vt 0.375000 0.000000
vt 0.394231 0.000000
vt 0.413462 0.000000
vt 0.432692 0.000000
vt 0.451923 0.000000
vt 0.471154 0.000000
vt 0.490385 0.000000
vt 0.509615 0.000000
vt 0.528846 0.000000
vt 0.548077 0.000000
vt 0.567308 0.000000
vt 0.586538 0.000000
vn -0.7981 0.6025 -0.0000
vn 0.0000 0.0000 -1.0000
vn 0.7981 0.6025 0.0000
vn 0.0000 0.0000 1.0000
vn 0.0000 -1.0000 0.0000
vn 0.0000 1.0000 0.0000
vn 0.0000 0.2218 0.9751
vn -0.0000 -0.2218 0.9751
vn 1.0000 0.0000 0.0000
vn 0.8753 0.4835 0.0000
vn 0.8753 -0.4835 0.0000
vn 0.0000 0.2218 -0.9751
vn 0.0000 -0.2218 -0.9751
vn -1.0000 0.0000 0.0000
vn -0.8753 0.4835 -0.0000
vn -0.8753 -0.4835 0.0000
usemtl Material.005
s off
f 20/1/1 2/2/1 4/3/1 21/4/1
f 21/4/2 4/3/2 8/5/2 33/6/2
f 33/6/3 8/5/3 6/7/3 45/8/3
f 45/8/4 6/7/4 2/9/4 20/10/4
f 3/11/5 7/12/5 5/13/5 1/14/5
f 8/5/6 4/15/6 2/16/6 6/7/6
f 5/13/4 56/17/4 9/18/4 1/19/4
f 56/17/4 55/20/4 10/21/4 9/18/4
f 55/20/4 54/22/4 11/23/4 10/21/4
f 54/22/4 53/24/4 12/25/4 11/23/4
f 53/24/4 52/26/4 13/27/4 12/25/4
f 52/26/4 51/28/4 14/29/4 13/27/4
f 51/28/4 50/30/4 15/31/4 14/29/4
f 50/30/7 49/32/7 16/33/7 15/31/7
f 49/32/4 48/34/4 17/35/4 16/33/4
f 48/34/8 47/36/8 18/37/8 17/35/8
f 47/36/4 46/38/4 19/39/4 18/37/4
f 46/38/4 45/8/4 20/10/4 19/39/4
f 7/12/9 44/40/9 56/17/9 5/13/9
f 44/40/9 43/41/9 55/20/9 56/17/9
f 43/41/9 42/42/9 54/22/9 55/20/9
f 42/42/9 41/43/9 53/24/9 54/22/9
f 41/43/9 40/44/9 52/26/9 53/24/9
f 40/44/9 39/45/9 51/28/9 52/26/9
f 39/45/9 38/46/9 50/30/9 51/28/9
f 38/46/10 37/47/10 49/32/10 50/30/10
f 37/47/9 36/48/9 48/34/9 49/32/9
f 36/48/11 35/49/11 47/36/11 48/34/11
f 35/49/9 34/50/9 46/38/9 47/36/9
f 34/50/9 33/6/9 45/8/9 46/38/9
f 3/51/2 32/52/2 44/40/2 7/12/2
f 32/52/2 31/53/2 43/41/2 44/40/2
f 31/53/2 30/54/2 42/42/2 43/41/2
f 30/54/2 29/55/2 41/43/2 42/42/2
f 29/55/2 28/56/2 40/44/2 41/43/2
f 28/56/2 27/57/2 39/45/2 40/44/2
f 27/57/2 26/58/2 38/46/2 39/45/2
f 26/58/12 25/59/12 37/47/12 38/46/12
f 25/59/2 24/60/2 36/48/2 37/47/2
f 24/60/13 23/61/13 35/49/13 36/48/13
f 23/61/2 22/62/2 34/50/2 35/49/2
f 22/62/2 21/4/2 33/6/2 34/50/2
f 1/63/14 9/64/14 32/52/14 3/51/14
f 9/64/14 10/65/14 31/53/14 32/52/14
f 10/65/14 11/66/14 30/54/14 31/53/14
f 11/66/14 12/67/14 29/55/14 30/54/14
f 12/67/14 13/68/14 28/56/14 29/55/14
f 13/68/14 14/69/14 27/57/14 28/56/14
f 14/69/14 15/70/14 26/58/14 27/57/14
f 15/70/15 16/71/15 25/59/15 26/58/15
f 16/71/14 17/72/14 24/60/14 25/59/14
f 17/72/16 18/73/16 23/61/16 24/60/16
f 18/73/14 19/74/14 22/62/14 23/61/14
f 19/74/14 20/1/14 21/4/14 22/62/14
