# Blender v3.3.1 OBJ File: ''
# www.blender.org
mtllib axe.mtl
o Cube_Cube.001
v -0.022218 0.348262 0.066396
v -0.022549 0.564009 0.066726
v -0.022218 0.348262 -0.066396
v -0.022549 0.564009 -0.066726
v 0.022218 0.348262 0.066396
v 0.022549 0.564009 0.066726
v 0.022218 0.348262 -0.066396
v 0.022549 0.564009 -0.066726
v -0.019919 0.588452 -0.151498
v -0.019919 0.323820 -0.151498
v 0.019919 0.323820 -0.151498
v 0.019919 0.588452 -0.151498
v -0.010786 0.525388 -0.219755
v -0.010786 0.386884 -0.219755
v 0.010786 0.386884 -0.219755
v 0.010786 0.525388 -0.219755
v -0.041446 0.348262 -0.085623
v -0.041446 0.348262 0.085623
v 0.041446 0.348262 -0.085623
v 0.041446 0.348262 0.085623
v -0.017793 -0.357677 -0.053173
v -0.017793 -0.357677 0.053173
v 0.017793 -0.357677 -0.053173
v 0.017793 -0.357677 0.053173
v -0.004501 0.485033 -0.277434
v -0.004501 0.427238 -0.277434
v 0.004501 0.427238 -0.277434
v 0.004501 0.485033 -0.277434
v -0.041446 0.564009 0.085623
v -0.041446 0.564009 -0.085623
v 0.041446 0.564009 -0.085623
v 0.041446 0.564009 0.085623
v -0.023940 0.596534 0.070844
v -0.023940 0.596534 -0.070844
v 0.023940 0.596534 -0.070844
v 0.023940 0.596534 0.070844
vt 0.375000 0.000000
vt 0.625000 0.000000
vt 0.625000 0.250000
vt 0.375000 0.250000
vt 0.625000 0.500000
vt 0.375000 0.500000
vt 0.375000 0.500000
vt 0.625000 0.500000
vt 0.625000 0.750000
vt 0.375000 0.750000
vt 0.625000 1.000000
vt 0.375000 1.000000
vt 0.375000 0.250000
vt 0.625000 0.250000
vt 0.625000 0.250000
vt 0.375000 0.250000
vt 0.125000 0.500000
vt 0.125000 0.500000
vt 0.875000 0.500000
vt 0.875000 0.500000
vt 0.625000 0.500000
vt 0.375000 0.500000
vt 0.375000 0.500000
vt 0.625000 0.500000
vt 0.125000 0.500000
vt 0.875000 0.500000
vt 0.182990 0.528070
vt 0.182990 0.721930
vt 0.125000 0.750000
vt 0.317010 0.528070
vt 0.317010 0.721930
vt 0.375000 0.250000
vt 0.625000 0.250000
vt 0.125000 0.500000
vt 0.875000 0.500000
vt 0.818007 0.722413
vt 0.818007 0.527587
vt 0.875000 0.750000
vt 0.681993 0.527587
vt 0.681993 0.722413
vt 0.317010 0.721930
vt 0.317010 0.528070
vt 0.681993 0.527587
vt 0.681993 0.722413
vt 0.182990 0.528070
vt 0.182990 0.721930
vt 0.818007 0.527587
vt 0.818007 0.722413
vn -1.0000 0.0000 0.0000
vn 0.9505 0.0000 -0.3106
vn 1.0000 0.0000 0.0000
vn 0.0000 0.0000 1.0000
vn -0.9912 0.0000 -0.1326
vn 0.0000 -0.9375 0.3479
vn 0.0000 0.9375 0.3479
vn -0.9505 0.0000 -0.3106
vn 0.9941 0.0000 -0.1083
vn 0.9912 0.0000 -0.1326
vn 0.0000 -0.7345 -0.6786
vn 0.0000 0.7345 -0.6786
vn 0.0000 -1.0000 0.0000
vn 0.0000 0.0000 -1.0000
vn 0.0000 -0.8194 -0.5733
vn 0.0000 0.8194 -0.5733
vn -0.9941 0.0000 -0.1083
vn 0.0000 1.0000 0.0000
vn 1.0000 -0.0063 0.0000
vn 0.9991 -0.0427 0.0000
vn -1.0000 -0.0063 0.0000
vn 0.0000 -0.0187 0.9998
vn 0.0000 -0.0187 -0.9998
vn -0.9991 -0.0427 0.0000
vn 0.0000 -0.1256 0.9921
vn 0.0000 -0.1256 -0.9921
usemtl Material.005
s off
f 18/1/1 29/2/1 30/3/1 17/4/1
f 31/5/2 19/6/2 11/7/2 12/8/2
f 19/6/3 31/5/3 32/9/3 20/10/3
f 20/10/4 32/9/4 29/11/4 18/12/4
f 10/13/5 9/14/5 13/15/5 14/16/5
f 19/6/6 17/17/6 10/18/6 11/7/6
f 30/19/7 31/5/7 12/8/7 9/20/7
f 17/4/8 30/3/8 9/14/8 10/13/8
f 16/21/9 15/22/9 27/23/9 28/24/9
f 12/8/10 11/7/10 15/22/10 16/21/10
f 11/7/11 10/18/11 14/25/11 15/22/11
f 9/20/12 12/8/12 16/21/12 13/26/12
f 3/27/13 1/28/13 18/29/13 17/17/13
f 7/30/13 3/27/13 17/17/13 19/6/13
f 5/31/13 7/30/13 19/6/13 20/10/13
f 1/28/13 5/31/13 20/10/13 18/29/13
f 26/32/14 25/33/14 28/24/14 27/23/14
f 15/22/15 14/25/15 26/34/15 27/23/15
f 13/26/16 16/21/16 28/24/16 25/35/16
f 14/16/17 13/15/17 25/33/17 26/32/17
f 2/36/18 4/37/18 30/19/18 29/38/18
f 4/37/18 8/39/18 31/5/18 30/19/18
f 8/39/18 6/40/18 32/9/18 31/5/18
f 6/40/18 2/36/18 29/38/18 32/9/18
usemtl Material.006
f 7/30/19 5/31/19 24/41/19 23/42/19
f 6/40/20 8/39/20 35/43/20 36/44/20
f 21/45/13 23/42/13 24/41/13 22/46/13
f 1/28/21 3/27/21 21/45/21 22/46/21
f 5/31/22 1/28/22 22/46/22 24/41/22
f 3/27/23 7/30/23 23/42/23 21/45/23
f 35/43/18 34/47/18 33/48/18 36/44/18
f 4/37/24 2/36/24 33/48/24 34/47/24
f 2/36/25 6/40/25 36/44/25 33/48/25
f 8/39/26 4/37/26 34/47/26 35/43/26
