# Blender v3.3.0 OBJ File: ''
# www.blender.org
mtllib arm.mtl
o Cube.001_Cube.004
v 0.053361 -0.379389 0.051199
v 0.053361 -0.379389 -0.056256
v 0.068087 0.077499 0.065924
v 0.068087 0.077499 -0.070982
v -0.054094 -0.379389 0.051199
v -0.054094 -0.379389 -0.056256
v -0.068819 0.077499 0.065924
v -0.068819 0.077499 -0.070982
v 0.068087 -0.379389 0.065924
v 0.068087 -0.379389 -0.070982
v -0.068819 -0.379389 -0.070982
v -0.068819 -0.379389 0.065924
v 0.053361 -0.466883 0.051199
v 0.053361 -0.466883 -0.056256
v -0.054094 -0.466883 -0.056256
v -0.054094 -0.466883 0.051199
v 0.068087 -0.077893 0.065924
v 0.068087 -0.077893 -0.070982
v -0.068819 -0.077893 0.065924
v -0.068819 -0.077893 -0.070982
vt 0.375000 0.133815
vt 0.625000 0.133815
vt 0.625000 0.250000
vt 0.375000 0.250000
vt 0.625000 0.500000
vt 0.375000 0.500000
vt 0.875000 0.500000
vt 0.875000 0.616185
vt 0.625000 0.616185
vt 0.125000 0.500000
vt 0.375000 0.616185
vt 0.125000 0.616185
vt 0.625000 0.750000
vt 0.375000 0.750000
vt 0.401889 0.973111
vt 0.401889 0.776889
vt 0.401889 0.776889
vt 0.401889 0.973111
vt 0.125000 0.750000
vt 0.875000 0.750000
vt 0.598111 0.973111
vt 0.625000 1.000000
vt 0.375000 1.000000
vt 0.598111 0.776889
vt 0.598111 0.776889
vt 0.598111 0.973111
vt 0.375000 0.000000
vt 0.625000 0.000000
vn 1.0000 0.0000 0.0000
vn 0.0000 1.0000 0.0000
vn -0.0000 0.0000 -1.0000
vn 0.0000 0.0000 1.0000
vn -1.0000 0.0000 0.0000
vn 0.0000 -1.0000 0.0000
usemtl Material.005
s off
f 17/1/1 18/2/1 4/3/1 3/4/1
f 3/4/2 4/3/2 8/5/2 7/6/2
f 8/5/3 4/7/3 18/8/3 20/9/3
f 3/10/4 7/6/4 19/11/4 17/12/4
f 7/6/5 8/5/5 20/9/5 19/11/5
usemtl Material.006
f 19/11/5 20/9/5 11/13/5 12/14/5
f 1/15/4 5/16/4 16/17/4 13/18/4
f 17/12/4 19/11/4 12/14/4 9/19/4
f 20/9/3 18/8/3 10/20/3 11/13/3
f 1/15/6 2/21/6 10/22/6 9/23/6
f 6/24/6 5/16/6 12/14/6 11/13/6
f 5/16/6 1/15/6 9/23/6 12/14/6
f 2/21/6 6/24/6 11/13/6 10/22/6
f 16/17/6 15/25/6 14/26/6 13/18/6
f 2/21/1 1/15/1 13/18/1 14/26/1
f 6/24/3 2/21/3 14/26/3 15/25/3
f 5/16/5 6/24/5 15/25/5 16/17/5
f 9/27/1 10/28/1 18/2/1 17/1/1
