# Blender v3.3.0 OBJ File: ''
# www.blender.org
mtllib body_head.mtl
o Cube_Cube.001
v 0.209631 -0.344477 -0.087292
v 0.104938 0.190446 0.017401
v 0.209631 -0.344477 0.306964
v 0.104938 0.190446 0.202271
v -0.208802 -0.344477 -0.087292
v -0.104109 0.190446 0.017401
v -0.208802 -0.344477 0.306964
v -0.104109 0.190446 0.202271
v 0.209631 -0.206567 -0.087292
v 0.209631 -0.206567 0.306964
v -0.208802 -0.206567 0.306964
v -0.208802 -0.206567 -0.087292
v 0.209631 0.036631 0.046761
v 0.209631 0.036631 0.190103
v -0.208802 0.036631 0.190103
v -0.208802 0.036631 0.044732
v -0.000684 0.000000 0.114232
v 0.209631 0.163794 0.046761
v 0.209631 0.163794 0.190103
v -0.208802 0.163794 0.190103
v -0.208802 0.163794 0.044732
v 0.104938 0.224177 0.017401
v 0.104938 0.224177 0.202271
v -0.104109 0.224177 0.202271
v -0.104109 0.224177 0.017401
v 0.274131 0.210534 -0.132223
v 0.274131 0.210534 0.351896
v -0.273301 0.210534 0.351896
v -0.273301 0.210534 -0.132223
v 0.274131 0.604931 -0.132223
v 0.274131 0.604931 0.351896
v -0.273301 0.604931 0.351896
v -0.273301 0.604931 -0.132223
v 0.209631 -0.151604 -0.087292
v 0.209631 0.190446 -0.087292
v 0.209631 0.190446 0.306964
v -0.208802 0.190446 0.306964
v -0.208802 0.190446 -0.087292
v 0.209631 -0.151604 0.306964
v -0.208802 -0.151604 0.306964
v -0.208802 -0.151604 -0.087292
v -0.248928 0.163794 0.190103
v -0.248928 0.163794 0.044732
v -0.248928 0.036631 0.190103
v -0.248928 0.036631 0.044732
v 0.250165 0.036631 0.046761
v 0.250165 0.163794 0.046761
v 0.250165 0.163794 0.190103
v 0.250165 0.036631 0.190103
v -0.273301 0.350330 0.351896
v -0.273301 0.482206 -0.132223
v 0.274131 0.482206 -0.132223
v 0.274131 0.350330 0.351896
v -0.117014 0.401887 -0.145720
v -0.117014 0.441562 -0.145720
v -0.117014 0.401887 -0.106045
v -0.117014 0.441562 -0.106045
v -0.179582 0.401887 -0.145720
v -0.179582 0.441562 -0.145720
v -0.179582 0.401887 -0.106045
v -0.179582 0.441562 -0.106045
v 0.173817 0.401887 -0.145720
v 0.173817 0.441562 -0.145720
v 0.173817 0.401887 -0.106045
v 0.173817 0.441562 -0.106045
v 0.111249 0.401887 -0.145720
v 0.111249 0.441562 -0.145720
v 0.111249 0.401887 -0.106045
v 0.111249 0.441562 -0.106045
vt 0.125000 0.500000
vt 0.375000 0.500000
vt 0.375000 0.750000
vt 0.125000 0.750000
vt 0.687551 0.683613
vt 0.687551 0.566387
vt 0.687551 0.566387
vt 0.687551 0.683613
vt 0.428836 0.750000
vt 0.450291 0.750000
vt 0.450291 1.000000
vt 0.428836 1.000000
vt 0.428836 0.500000
vt 0.450291 0.500000
vt 0.428836 0.250000
vt 0.450291 0.250000
vt 0.428836 0.000000
vt 0.450291 0.000000
vt 0.812449 0.683613
vt 0.812449 0.566387
vt 0.875000 0.500000
vt 0.875000 0.750000
vt 0.625000 0.500000
vt 0.625000 0.750000
vt 0.812449 0.683613
vt 0.687551 0.683613
vt 0.812449 0.683613
vt 0.812449 0.566387
vt 0.812449 0.566387
vt 0.687551 0.566387
vt 0.812449 0.566387
vt 0.687551 0.566387
vt 0.687551 0.683613
vt 0.812449 0.683613
vt 0.375000 0.250000
vt 0.625000 0.250000
vt 0.625000 0.500000
vt 0.375000 0.500000
vt 0.375000 0.250000
vt 0.625000 0.250000
vt 0.625000 0.500000
vt 0.375000 0.500000
vt 0.687551 0.566387
vt 0.687551 0.683613
vt 0.812449 0.566387
vt 0.812449 0.683613
vt 0.469794 0.031681
vt 0.605497 0.031681
vt 0.605497 0.031681
vt 0.469794 0.031681
vt 0.625000 0.250000
vt 0.469794 0.531681
vt 0.605497 0.531681
vt 0.605497 0.531681
vt 0.469794 0.531681
vt 0.625000 1.000000
vt 0.375000 1.000000
vt 0.375000 0.250000
vt 0.375000 0.000000
vt 0.625000 0.000000
vt 0.605497 0.218319
vt 0.605497 0.718319
vt 0.469794 0.218319
vt 0.469794 0.718319
vt 0.605497 0.718319
vt 0.469794 0.718319
vt 0.605497 0.218319
vt 0.469794 0.218319
vt 0.375000 0.000000
vt 0.625000 0.000000
vt 0.625000 0.750000
vt 0.375000 0.750000
vt 0.625000 1.000000
vt 0.375000 1.000000
vt 0.125000 0.500000
vt 0.125000 0.750000
vt 0.875000 0.500000
vt 0.875000 0.750000
vt 0.375000 0.000000
vt 0.625000 0.000000
vt 0.625000 0.750000
vt 0.375000 0.750000
vt 0.625000 1.000000
vt 0.375000 1.000000
vt 0.125000 0.500000
vt 0.125000 0.750000
vt 0.875000 0.500000
vt 0.875000 0.750000
vn 0.0000 -1.0000 0.0000
vn -1.0000 0.0000 0.0000
vn 0.0000 0.0000 -1.0000
vn 0.0000 0.0000 1.0000
vn 1.0000 0.0000 -0.0000
vn 0.0000 1.0000 0.0000
vn 0.0000 -0.9959 0.0908
vn -0.0000 -0.9959 -0.0908
vn 0.0804 -0.9968 -0.0000
vn -0.0804 -0.9968 0.0000
usemtl Material.001
s off
f 3/1/1 7/2/1 5/3/1 1/4/1
f 6/5/2 8/6/2 24/7/2 25/8/2
f 12/9/3 41/10/3 34/11/3 9/12/3
f 11/13/2 40/14/2 41/10/2 12/9/2
f 10/15/4 39/16/4 40/14/4 11/13/4
f 9/17/5 34/18/5 39/16/5 10/15/5
f 2/19/6 4/20/6 36/21/6 35/22/6
f 4/20/6 8/6/6 37/23/6 36/21/6
f 8/6/6 6/5/6 38/24/6 37/23/6
f 6/5/6 2/19/6 35/22/6 38/24/6
f 22/25/7 25/8/7 29/26/7 26/27/7
f 4/20/5 2/19/5 22/25/5 23/28/5
f 2/19/3 6/5/3 25/8/3 22/25/3
f 8/6/4 4/20/4 23/28/4 24/7/4
f 24/7/8 23/28/8 27/29/8 28/30/8
f 25/8/9 24/7/9 28/30/9 29/26/9
f 23/28/10 22/25/10 26/27/10 27/29/10
f 28/30/4 27/29/4 53/31/4 50/32/4
f 26/27/3 29/26/3 51/33/3 52/34/3
f 27/29/5 26/27/5 52/34/5 53/31/5
f 29/26/2 28/30/2 50/32/2 51/33/2
f 56/35/4 57/36/4 61/37/4 60/38/4
f 64/39/4 65/40/4 69/41/4 68/42/4
usemtl Material.002
f 51/33/2 50/32/2 32/43/2 33/44/2
f 32/43/6 31/45/6 30/46/6 33/44/6
f 53/31/5 52/34/5 30/46/5 31/45/5
f 52/34/3 51/33/3 33/44/3 30/46/3
f 50/32/4 53/31/4 31/45/4 32/43/4
usemtl Material.003
f 13/47/3 18/48/3 47/49/3 46/50/3
f 39/16/4 36/51/4 37/23/4 40/14/4
f 15/52/4 20/53/4 42/54/4 44/55/4
f 41/10/3 38/24/3 35/56/3 34/11/3
f 5/3/3 12/9/3 9/12/3 1/57/3
f 7/2/2 11/13/2 12/9/2 5/3/2
f 3/58/4 10/15/4 11/13/4 7/2/4
f 1/59/5 9/17/5 10/15/5 3/58/5
f 18/48/5 13/47/5 34/18/5 35/60/5
f 19/61/5 18/48/5 35/60/5 36/51/5
f 21/62/2 20/53/2 37/23/2 38/24/2
f 14/63/5 19/61/5 36/51/5 39/16/5
f 20/53/2 15/52/2 40/14/2 37/23/2
f 16/64/2 21/62/2 38/24/2 41/10/2
f 15/52/2 16/64/2 41/10/2 40/14/2
f 13/47/5 14/63/5 39/16/5 34/18/5
f 44/55/2 42/54/2 43/65/2 45/66/2
f 20/53/6 21/62/6 43/65/6 42/54/6
f 21/62/3 16/64/3 45/66/3 43/65/3
f 16/64/1 15/52/1 44/55/1 45/66/1
f 46/50/5 47/49/5 48/67/5 49/68/5
f 14/63/1 13/47/1 46/50/1 49/68/1
f 19/61/4 14/63/4 49/68/4 48/67/4
f 18/48/6 19/61/6 48/67/6 47/49/6
usemtl Material.004
f 54/69/5 55/70/5 57/36/5 56/35/5
f 60/38/2 61/37/2 59/71/2 58/72/2
f 58/72/3 59/71/3 55/73/3 54/74/3
f 56/75/1 60/38/1 58/72/1 54/76/1
f 61/37/6 57/77/6 55/78/6 59/71/6
f 62/79/5 63/80/5 65/40/5 64/39/5
f 68/42/2 69/41/2 67/81/2 66/82/2
f 66/82/3 67/81/3 63/83/3 62/84/3
f 64/85/1 68/42/1 66/82/1 62/86/1
f 69/41/6 65/87/6 63/88/6 67/81/6
