# Blender v3.3.0 OBJ File: ''
# www.blender.org
mtllib turret_body.mtl
o Cube_Cube.001
v 0.161085 0.113284 -0.163487
v 0.161085 0.187905 -0.091379
v 0.161085 0.229109 0.127433
v 0.161085 0.116431 0.127433
v -0.047585 0.116431 0.127433
v -0.047585 0.229109 0.127433
v -0.161085 0.229109 0.127433
v -0.161085 0.116431 0.127433
v -0.161085 0.187905 -0.091379
v -0.161085 0.113284 -0.163487
v -0.098177 -0.006007 0.154172
v -0.190696 -0.006007 0.154172
v -0.190696 -0.006007 -0.190226
v -0.098177 -0.006007 -0.190226
v 0.046702 0.229109 0.127433
v 0.046702 0.187905 -0.091379
v -0.047585 0.187905 -0.091379
v 0.190696 -0.006007 0.154172
v 0.098177 -0.006007 0.154172
v 0.098177 -0.006007 -0.190226
v 0.190696 -0.006007 -0.190226
v 0.046702 0.116431 0.127433
v 0.082932 0.054723 0.127433
v -0.082932 0.054723 0.127433
v 0.161085 0.054723 0.127433
v -0.082932 0.054723 -0.163487
v 0.082932 0.054723 -0.163487
v -0.161085 0.054723 -0.163487
v 0.161085 0.054723 -0.163487
v -0.161085 0.054723 0.127433
v 0.046702 0.113284 -0.163487
v -0.047585 0.113284 -0.163487
vt 0.581452 0.000000
vt 0.625000 0.000000
vt 0.625000 0.250000
vt 0.581452 0.250000
vt 0.581452 0.439354
vt 0.625000 0.439355
vt 0.625000 0.500000
vt 0.581452 0.500000
vt 0.625000 0.750000
vt 0.581452 0.750000
vt 0.314354 0.500000
vt 0.375000 0.500000
vt 0.375000 0.750000
vt 0.314354 0.750000
vt 0.814354 0.500000
vt 0.875000 0.500000
vt 0.875000 0.750000
vt 0.814354 0.750000
vt 0.685645 0.500000
vt 0.685645 0.750000
vt 0.125000 0.500000
vt 0.185645 0.500000
vt 0.185645 0.750000
vt 0.125000 0.750000
vt 0.625000 0.310645
vt 0.581452 0.310645
vt 0.375000 0.310645
vt 0.457792 0.310645
vt 0.457792 0.439354
vt 0.375000 0.439354
vt 0.375000 0.250000
vt 0.457792 0.250000
vt 0.375000 0.810646
vt 0.457792 0.810645
vt 0.457792 0.939355
vt 0.375000 0.939354
vt 0.457792 0.750000
vt 0.457792 1.000000
vt 0.375000 1.000000
vt 0.457792 0.500000
vt 0.375000 0.000000
vt 0.457792 0.000000
vt 0.581452 0.939355
vt 0.625000 0.939354
vt 0.581452 0.810645
vt 0.625000 0.810645
vt 0.625000 1.000000
vt 0.581452 1.000000
vn 1.0000 -0.0000 0.0000
vn 0.0000 -0.0000 1.0000
vn -1.0000 0.0000 0.0000
vn 0.0000 -1.0000 -0.0000
vn 0.0000 0.9827 -0.1851
vn 0.0000 0.4030 0.9152
vn 0.0000 0.4030 -0.9152
vn -0.8988 0.4383 0.0000
vn 0.8988 0.4383 0.0000
vn 0.0000 0.9999 -0.0108
vn 0.0000 0.6949 -0.7191
vn 0.0000 0.0000 -1.0000
usemtl Material.002
s 1
f 1/1/1 2/2/1 3/3/1 4/4/1
f 5/5/2 6/6/2 7/7/2 8/8/2
f 8/8/3 7/7/3 9/9/3 10/10/3
f 11/11/4 12/12/4 13/13/4 14/14/4
f 15/15/5 3/16/5 2/17/5 16/18/5
f 7/7/5 6/19/5 17/20/5 9/9/5
f 18/21/4 19/22/4 20/23/4 21/24/4
f 19/22/4 11/11/4 14/14/4 20/23/4
f 4/4/2 3/3/2 15/25/2 22/26/2
f 19/27/6 23/28/6 24/29/6 11/30/6
f 18/31/6 25/32/6 23/28/6 19/27/6
f 14/33/7 26/34/7 27/35/7 20/36/7
f 13/13/7 28/37/7 26/34/7 14/33/7
f 20/36/7 27/35/7 29/38/7 21/39/7
f 12/12/8 30/40/8 28/37/8 13/13/8
f 11/30/6 24/29/6 30/40/6 12/12/6
f 21/41/9 29/42/9 25/32/9 18/31/9
f 31/43/3 22/26/3 15/15/3 16/44/3
f 32/45/1 17/46/1 6/19/1 5/5/1
f 5/5/10 22/26/10 31/43/10 32/45/10
usemtl Material.003
f 31/43/11 16/44/11 2/47/11 1/48/11
f 10/10/11 9/9/11 17/46/11 32/45/11
f 23/28/2 22/26/2 5/5/2 24/29/2
f 25/32/2 4/4/2 22/26/2 23/28/2
f 26/34/12 32/45/12 31/43/12 27/35/12
f 28/37/12 10/10/12 32/45/12 26/34/12
f 27/35/12 31/43/12 1/48/12 29/38/12
f 30/40/3 8/8/3 10/10/3 28/37/3
f 24/29/2 5/5/2 8/8/2 30/40/2
f 29/42/1 1/1/1 4/4/1 25/32/1
