# Blender v3.3.0 OBJ File: ''
# www.blender.org
mtllib ar.mtl
o Cube_Cube.001
v 0.044095 0.055403 0.003326
v 0.044095 0.090296 0.003326
v 0.047273 0.081354 0.078011
v 0.047273 0.055403 0.078011
v -0.044095 0.090296 0.003326
v -0.047273 0.081354 0.078011
v 0.044095 -0.002753 0.003326
v 0.047273 -0.002753 0.078011
v -0.026092 0.009766 -0.606623
v -0.026092 0.041095 -0.606623
v -0.026092 0.041095 -0.638039
v -0.026092 0.009766 -0.638039
v -0.047273 -0.002753 0.078011
v -0.047273 0.055403 0.078011
v -0.044095 0.055403 0.003326
v -0.044095 -0.002753 0.003326
v 0.043513 -0.002753 -0.055716
v 0.043513 0.055403 -0.055716
v 0.043513 0.090296 -0.055716
v -0.043513 0.090296 -0.055716
v -0.043513 -0.002753 -0.055716
v 0.042269 0.055403 -0.138679
v 0.042269 0.090296 -0.138679
v -0.033911 -0.145911 -0.164107
v 0.033911 -0.145911 -0.164107
v 0.026092 0.090296 -0.216863
v -0.026092 0.090296 -0.216863
v -0.042269 0.090296 -0.138679
v 0.042269 -0.002753 -0.138679
v -0.043513 0.055403 -0.055716
v -0.042269 0.055403 -0.138679
v -0.042269 -0.002753 -0.138679
v -0.032941 -0.145911 -0.228761
v 0.032941 -0.145911 -0.228761
v -0.013682 0.016170 -0.557669
v -0.013682 0.034691 -0.557669
v 0.013682 0.034691 -0.557669
v 0.013682 0.016170 -0.557669
v 0.026092 0.041095 -0.606623
v 0.026092 0.009766 -0.606623
v 0.026092 0.009766 -0.638039
v 0.026092 0.041095 -0.638039
v 0.000000 0.069862 -0.638725
v -0.026092 0.055403 -0.370848
v 0.026092 0.055403 -0.370848
v 0.026092 -0.002753 -0.370848
v -0.026092 -0.002753 -0.370848
v -0.015542 0.035652 -0.638039
v -0.015542 0.015210 -0.638039
v 0.015542 0.015210 -0.638039
v 0.015542 0.035652 -0.638039
v 0.034041 0.005767 0.266547
v 0.034041 0.090296 0.266547
v 0.029994 0.090296 0.315648
v 0.029994 0.005767 0.315648
v -0.029994 0.090296 0.315648
v -0.029994 0.005767 0.315648
v -0.034041 -0.135114 0.266547
v 0.034041 -0.135114 0.266547
v 0.029994 -0.135114 0.315648
v -0.029994 -0.135114 0.315648
v -0.034041 0.090296 0.266547
v -0.034041 0.005767 0.266547
v -0.038271 -0.083258 0.092784
v 0.038271 -0.083258 0.092784
v -0.035698 -0.083258 0.058431
v 0.035698 -0.083258 0.058431
vt 0.531250 0.654668
vt 0.625000 0.654668
vt 0.625000 0.681973
vt 0.531250 0.681973
vt 0.875000 0.654668
vt 0.875000 0.681973
vt 0.375000 0.654668
vt 0.375000 0.681973
vt 0.375000 0.250000
vt 0.531250 0.250000
vt 0.531250 0.250000
vt 0.375000 0.250000
vt 0.375000 0.068027
vt 0.531250 0.068027
vt 0.531250 0.095332
vt 0.375000 0.095332
vt 0.375000 0.603112
vt 0.531250 0.603112
vt 0.625000 0.603112
vt 0.875000 0.603112
vt 0.125000 0.603112
vt 0.125000 0.654668
vt 0.625000 0.068027
vt 0.625000 0.095332
vt 0.531250 0.551556
vt 0.625000 0.551556
vt 0.125000 0.603112
vt 0.375000 0.603112
vt 0.625000 0.500000
vt 0.875000 0.500000
vt 0.875000 0.551556
vt 0.375000 0.551556
vt 0.531250 0.146888
vt 0.375000 0.146888
vt 0.531250 0.198444
vt 0.375000 0.198444
vt 0.625000 0.146888
vt 0.625000 0.198444
vt 0.125000 0.551556
vt 0.375000 0.551556
vt 0.375000 0.198444
vt 0.375000 0.146888
vt 0.125000 0.551556
vt 0.392206 0.309455
vt 0.514044 0.309455
vt 0.514044 0.440545
vt 0.392206 0.440545
vt 0.531250 0.500000
vt 0.375000 0.500000
vt 0.375000 0.500000
vt 0.531250 0.500000
vt 0.125000 0.500000
vt 0.125000 0.500000
vt 0.531250 0.250000
vt 0.531250 0.250000
vt 0.531250 0.500000
vt 0.375000 0.500000
vt 0.125000 0.500000
vt 0.375000 0.250000
vt 0.531250 0.500000
vt 0.516624 0.300539
vt 0.389626 0.300539
vt 0.389626 0.449461
vt 0.516624 0.449461
vt 0.625000 0.250000
vt 0.531250 0.726931
vt 0.625000 0.726931
vt 0.625000 0.750000
vt 0.531250 0.750000
vt 0.625000 1.000000
vt 0.531250 1.000000
vt 0.125000 0.726931
vt 0.375000 0.726931
vt 0.375000 0.750000
vt 0.125000 0.750000
vt 0.875000 0.726931
vt 0.875000 0.750000
vt 0.125000 0.681973
vt 0.531250 0.000000
vt 0.625000 0.000000
vt 0.625000 0.023069
vt 0.531250 0.023069
vt 0.125000 0.681973
vt 0.375000 0.681973
vt 0.375000 0.023069
vt 0.375000 0.000000
vt 0.375000 1.000000
vt 0.125000 0.654668
vt 0.375000 0.654668
vt 0.375000 0.095332
vt 0.375000 0.068027
vn 0.9991 0.0000 -0.0425
vn 0.0000 0.9929 0.1189
vn 0.9972 -0.0562 -0.0495
vn 0.9971 -0.0620 -0.0451
vn -1.0000 0.0000 0.0000
vn -0.9971 -0.0620 -0.0451
vn -0.9991 0.0000 -0.0425
vn -0.9972 -0.0562 -0.0495
vn 0.9998 -0.0126 -0.0130
vn 0.9999 0.0000 -0.0124
vn 1.0000 0.0000 -0.0098
vn 0.0000 1.0000 0.0000
vn 0.0000 -1.0000 -0.0000
vn 0.9999 0.0000 -0.0150
vn 0.0000 -0.6036 0.7973
vn 0.9994 -0.0320 -0.0150
vn -1.0000 0.0000 -0.0098
vn -0.9999 -0.0000 -0.0124
vn -0.9998 -0.0126 -0.0130
vn -0.9999 -0.0000 -0.0150
vn -0.9994 -0.0320 -0.0150
vn -0.9983 -0.0556 -0.0150
vn 0.9983 -0.0556 -0.0150
vn 0.0000 0.5326 -0.8464
vn 0.0000 0.0000 -1.0000
vn 1.0000 0.0000 0.0000
vn -0.7407 0.6718 0.0000
vn 0.0000 0.9982 -0.0606
vn 0.0000 -0.9986 -0.0530
vn 0.7407 0.6718 0.0000
vn 0.0000 -0.0238 -0.9997
vn 0.0000 0.7447 0.6674
vn 0.9997 0.0000 -0.0231
vn 0.0000 0.9999 -0.0119
vn -0.9997 0.0000 -0.0231
vn 0.0000 -0.9999 -0.0120
vn -0.9696 0.2230 -0.1011
vn 0.0000 0.9753 -0.2210
vn 0.9966 -0.0000 0.0821
vn 0.0000 -0.0000 1.0000
vn 0.0000 0.9989 -0.0474
vn 0.0000 -0.8184 -0.5746
vn 0.9975 -0.0000 0.0700
vn -0.9966 -0.0000 0.0821
vn 0.0000 0.1805 0.9836
vn -0.9975 -0.0000 0.0700
vn -0.9976 0.0000 -0.0695
vn 0.9696 0.2230 -0.1011
vn 0.9976 -0.0000 -0.0695
vn 0.9902 -0.1297 -0.0522
vn -0.9902 -0.1297 -0.0522
vn 0.0000 -0.5648 -0.8252
usemtl Material.005
s 1
f 1/1/1 2/2/1 3/3/1 4/4/1
f 2/2/2 5/5/2 6/6/2 3/3/2
f 7/7/3 1/1/1 4/4/1 8/8/4
f 9/9/5 10/10/5 11/11/5 12/12/5
f 13/13/6 14/14/7 15/15/7 16/16/8
f 17/17/9 18/18/10 1/1/11 7/7/11
f 19/19/12 20/20/12 5/5/12 2/2/12
f 21/21/13 17/17/13 7/7/13 16/22/13
f 18/18/10 19/19/10 2/2/11 1/1/11
f 14/14/7 6/23/7 5/24/7 15/15/7
f 22/25/14 23/26/14 19/19/10 18/18/10
f 17/17/15 21/21/15 24/27/15 25/28/15
f 26/29/12 27/30/12 28/31/12 23/26/12
f 23/26/12 28/31/12 20/20/12 19/19/12
f 29/32/16 22/25/14 18/18/10 17/17/9
f 16/16/17 15/15/17 30/33/18 21/34/19
f 21/34/19 30/33/18 31/35/20 32/36/21
f 15/15/17 5/24/17 20/37/18 30/33/18
f 30/33/18 20/37/18 28/38/20 31/35/20
f 33/39/13 34/40/13 25/28/13 24/27/13
f 21/34/19 32/36/21 33/41/22 24/42/22
f 29/32/16 17/17/9 25/28/23 34/40/23
f 32/43/24 29/32/24 34/40/24 33/39/24
f 35/44/25 36/45/25 37/46/25 38/47/25
f 39/48/26 40/49/26 41/50/26 42/51/26
f 40/49/13 9/52/13 12/53/13 41/50/13
f 11/11/27 10/10/27 43/54/27
f 44/55/28 45/56/28 39/48/28 10/10/28
f 46/57/29 47/58/29 9/52/29 40/49/29
f 45/56/26 46/57/26 40/49/26 39/48/26
f 47/59/5 44/55/5 10/10/5 9/9/5
f 39/48/30 42/51/30 43/60/30
f 42/51/31 11/11/31 43/60/31
f 10/10/32 39/48/32 43/54/32
f 48/61/25 49/62/25 12/12/25 11/11/25
f 49/62/25 50/63/25 41/50/25 12/12/25
f 50/63/25 51/64/25 42/51/25 41/50/25
f 51/64/25 48/61/25 11/11/25 42/51/25
f 36/45/33 35/44/33 49/62/33 48/61/33
f 35/44/34 38/47/34 50/63/34 49/62/34
f 38/47/35 37/46/35 51/64/35 50/63/35
f 37/46/36 36/45/36 48/61/36 51/64/36
usemtl Material.006
f 31/35/37 28/38/37 27/65/37 44/55/37
f 44/55/38 27/65/38 26/29/38 45/56/38
f 52/66/39 53/67/39 54/68/39 55/69/39
f 55/69/40 54/68/40 56/70/40 57/71/40
f 58/72/13 59/73/13 60/74/13 61/75/13
f 53/67/12 62/76/12 56/77/12 54/68/12
f 3/3/41 6/6/41 62/76/41 53/67/41
f 13/78/42 8/8/42 59/73/42 58/72/42
f 4/4/43 3/3/43 53/67/43 52/66/43
f 57/79/44 56/80/44 62/81/44 63/82/44
f 8/8/45 13/78/45 64/83/45 65/84/45
f 63/82/46 62/81/46 6/23/46 14/14/46
f 58/85/46 63/82/46 14/14/46 13/13/46
f 61/86/44 57/79/44 63/82/44 58/85/44
f 8/8/43 4/4/43 52/66/43 59/73/43
f 60/74/40 55/69/40 57/71/40 61/87/40
f 59/73/39 52/66/39 55/69/39 60/74/39
f 32/36/47 31/35/47 44/55/47 47/59/47
f 45/56/48 26/29/48 23/26/48 22/25/48
f 47/58/13 46/57/13 29/32/13 32/43/13
f 46/57/49 45/56/49 22/25/49 29/32/49
f 66/88/13 67/89/13 65/84/13 64/83/13
f 7/7/3 8/8/4 65/84/50 67/89/50
f 13/13/6 16/16/8 66/90/51 64/91/51
f 16/22/52 7/7/52 67/89/52 66/88/52
